<svg width="47" height="46" viewBox="0 0 47 46" fill="none" xmlns="http://www.w3.org/2000/svg">
<path fill-rule="evenodd" clip-rule="evenodd" d="M0.0209656 0V6.67572e-06L46.021 6.67572e-06L46.021 45.4795H23.1818L0.0209656 45.4795L0.0209656 46L46.021 46V45.4795H46.3426V22.7397L46.3426 0L23.1818 0L0.0209656 0ZM5.82565 11.7252C6.27439 12.8764 6.28887 12.9332 6.04278 12.9332C5.92698 12.9332 5.78222 12.8053 5.7388 12.649C5.63747 12.3079 4.94264 12.251 4.94264 12.5637C4.94264 12.7911 4.68208 13.0043 4.56628 12.8906C4.52285 12.8479 4.63866 12.3932 4.82684 11.8815C5.21768 10.7587 5.43481 10.7303 5.82565 11.7252ZM8.22859 11.114C8.44572 11.3841 8.43124 12.9616 8.22859 12.8906C8.12726 12.8622 8.04041 12.6632 8.01145 12.4642C7.96803 12.1658 7.88118 12.0805 7.62062 12.0805C7.36006 12.0805 7.2732 12.1658 7.22978 12.4642C7.20083 12.6632 7.0995 12.8622 7.01264 12.9048C6.86789 12.9474 6.82446 12.6916 6.82446 11.9526V10.9435H7.46138C7.8088 10.9435 8.15621 11.0288 8.22859 11.114ZM10.5447 11.114C10.7618 11.3983 10.7618 12.9616 10.5447 12.8906C10.4433 12.8622 10.3565 12.6632 10.3275 12.4642C10.2841 12.1658 10.1973 12.0805 9.92222 12.0805C9.63271 12.0805 9.57481 12.1515 9.57481 12.5069C9.57481 12.7911 9.50243 12.9332 9.35768 12.9332C9.18397 12.9332 9.14055 12.7343 9.14055 11.9384V10.9435H9.77747C10.1249 10.9435 10.4723 11.0288 10.5447 11.114ZM13.0489 11.2277C13.6424 11.8104 13.2226 12.9332 12.3975 12.9332C11.6014 12.9332 11.1382 11.7962 11.7027 11.1993C12.0067 10.8582 12.687 10.8724 13.0489 11.2277ZM14.4386 11.4409C14.5399 12.0094 14.786 12.251 14.786 11.7962C14.786 11.4267 15.0321 10.9435 15.2203 10.9435C15.2926 10.9435 15.4229 11.2135 15.5243 11.5404C15.669 12.0521 15.7124 12.1089 15.8138 11.8673C15.8717 11.711 15.9296 11.4409 15.9296 11.2562C15.944 11.0714 16.0309 10.9435 16.1612 10.9435L16.1891 10.9434C16.2533 10.943 16.299 10.9427 16.3259 10.965C16.3925 11.0202 16.3444 11.2136 16.1777 11.8847L16.1467 12.0094C16.0164 12.5353 15.8282 12.9332 15.7269 12.9332C15.6256 12.9332 15.4663 12.6348 15.365 12.251L15.1913 11.5831L14.9742 12.2652C14.8584 12.649 14.6991 12.9332 14.5978 12.8906C14.511 12.8622 14.3228 12.4216 14.1925 11.8957C13.9898 11.1283 13.9898 10.9435 14.1491 10.9435C14.2504 10.9435 14.3807 11.1709 14.4386 11.4409ZM18.4049 11.2135C18.5931 11.5831 18.5931 11.6541 18.3325 11.6541C18.2167 11.6541 18.1154 11.5546 18.1154 11.4267C18.1154 11.2846 18.014 11.2277 17.7969 11.2562C17.3047 11.3272 17.3337 11.5973 17.8403 11.7394C18.7523 11.9952 18.7668 12.8195 17.8693 12.9048C17.4495 12.9474 16.9573 12.649 16.9573 12.3505C16.9573 12.1373 17.3482 12.2084 17.4495 12.4358C17.4929 12.5495 17.6522 12.649 17.8114 12.649C18.1733 12.649 18.3325 12.2368 17.9996 12.1373C17.2613 11.9099 17.1021 11.782 17.1021 11.4551C17.1021 11.0714 17.2613 10.9719 17.8548 10.9577C18.1009 10.9435 18.3036 11.043 18.4049 11.2135ZM21.4447 11.2135C21.5461 11.4267 21.5316 11.5404 21.3724 11.6967C21.1408 11.9384 21.2276 12.0947 21.5316 11.981C21.6619 11.9384 21.7343 12.0094 21.7343 12.1942C21.7343 12.3505 21.7632 12.5779 21.8066 12.6916C21.879 12.8479 21.7487 12.8906 21.2131 12.8764C20.417 12.8622 20.0985 12.5495 20.4025 12.0805C20.4894 11.9241 20.5762 11.6541 20.5762 11.4694C20.5762 11.2846 20.6196 11.0856 20.6775 11.043C20.8657 10.844 21.3 10.9435 21.4447 11.2135ZM24.2675 12.0236C23.8766 11.8673 23.7608 11.7252 23.7608 11.4551C23.7608 11.0714 23.9201 10.9719 24.5136 10.9577C24.7596 10.9435 24.9623 11.043 25.0491 11.2135C25.2518 11.5688 25.0781 11.711 24.7596 11.4267C24.4991 11.1993 24.0503 11.242 24.0503 11.4836C24.0503 11.5546 24.253 11.6683 24.4991 11.7394C25.411 11.9952 25.4255 12.8195 24.528 12.9048C24.1082 12.9474 23.6161 12.649 23.6161 12.3505C23.6161 12.1373 24.0069 12.2084 24.1082 12.4358C24.2096 12.7058 24.7741 12.72 24.7741 12.4358C24.7741 12.3221 24.5425 12.1373 24.2675 12.0236ZM27.2929 11.2562C27.51 11.6115 27.2494 11.9952 26.7138 12.0805C26.3809 12.1373 26.2796 12.2368 26.2506 12.5495C26.1493 13.3312 25.9322 12.9048 25.9322 11.9241L25.9322 10.9293L26.5257 10.9719C26.9165 11.0003 27.1915 11.0998 27.2929 11.2562ZM29.1168 11.6541C29.5655 12.7769 29.5945 12.9332 29.3629 12.9332C29.247 12.9332 29.1168 12.8053 29.0733 12.649C28.9865 12.3079 28.2482 12.2368 28.2482 12.5637C28.2482 12.7911 27.9877 13.0043 27.8719 12.8906C27.8284 12.8479 27.9443 12.3932 28.1324 11.8815C28.5233 10.7729 28.7404 10.7303 29.1168 11.6541ZM31.5342 11.114C31.7513 11.3983 31.7513 12.9616 31.5342 12.8906C31.4329 12.8622 31.346 12.6632 31.317 12.4642C31.2736 12.1658 31.1868 12.0805 30.9117 12.0805C30.6222 12.0805 30.5643 12.1515 30.5643 12.5211C30.5643 12.8053 30.5064 12.9332 30.3906 12.9048C30.2748 12.8622 30.188 12.4926 30.159 11.8957L30.1156 10.9435H30.7525C31.1144 10.9435 31.4618 11.0288 31.5342 11.114ZM33.8358 11.0572C34.0674 11.1993 34.0819 12.9759 33.8503 12.8906C33.7489 12.8622 33.6621 12.6632 33.6331 12.4642C33.5897 12.1658 33.5029 12.0805 33.2278 12.0805C32.9383 12.0805 32.8804 12.1515 32.8804 12.5211C32.8804 12.8053 32.8225 12.9332 32.7067 12.9048C32.5909 12.8622 32.504 12.4926 32.4751 11.8957L32.4317 10.9435H33.0541C33.4015 10.9435 33.7489 11.0003 33.8358 11.0572ZM36.3545 11.2277C36.948 11.8104 36.5282 12.9332 35.7031 12.9332C34.9215 12.9332 34.5017 11.9526 34.9938 11.2562C35.2689 10.8582 35.9637 10.844 36.3545 11.2277ZM37.4547 10.9435C37.556 10.9435 37.6863 11.1709 37.7442 11.4409C37.8745 12.1515 38.0482 12.18 38.164 11.512C38.2943 10.7729 38.5838 10.7872 38.8588 11.5404L39.0615 12.1515L39.1773 11.6115C39.2786 11.114 39.4812 10.8298 39.626 10.9861C39.7563 11.114 39.2062 12.9474 39.047 12.8906C38.9601 12.8622 38.8009 12.5637 38.6851 12.2084L38.468 11.5831L38.3087 12.2226C38.0771 13.1606 37.8021 13.0469 37.4981 11.8957C37.2954 11.1283 37.2954 10.9435 37.4547 10.9435ZM40.9867 12.0378C40.3932 11.8104 40.234 11.4551 40.5814 11.114C40.8275 10.8724 41.4933 10.9009 41.7105 11.1567C41.9855 11.4836 41.7394 11.711 41.4065 11.4267C41.2617 11.2988 41.0446 11.2277 40.9143 11.2704C40.5669 11.4125 40.6538 11.5973 41.1459 11.7394C42.0434 11.9952 42.0868 12.8053 41.2183 12.9048C40.8419 12.9474 40.2629 12.6063 40.2629 12.3363C40.2629 12.1373 40.6682 12.2084 40.7551 12.45C40.7985 12.5779 40.9722 12.649 41.1604 12.6206C41.6815 12.5495 41.6091 12.2795 40.9867 12.0378ZM10.3275 15.1646C10.2986 15.0224 10.3131 14.8093 10.3565 14.6956C10.4578 14.4397 11.0224 14.4397 11.0224 14.6956C11.0224 14.8235 10.921 14.8661 10.7329 14.8235C10.5302 14.7666 10.4433 14.8235 10.4433 14.994C10.4433 15.1646 10.5302 15.2214 10.7329 15.1646C10.921 15.1219 11.0224 15.1646 11.0224 15.3067C11.0224 15.6051 10.3854 15.4772 10.3275 15.1646ZM12.9766 15.0651C13.0489 15.3777 13.02 15.4204 12.687 15.4204C12.2962 15.4204 12.2383 15.2214 12.4844 14.7524C12.6581 14.4255 12.8463 14.5392 12.9766 15.0651ZM14.3517 14.994C14.3517 14.5961 14.4096 14.4966 14.6412 14.4966C14.8005 14.4966 14.9308 14.5534 14.9308 14.6387C14.9308 14.7098 14.815 14.7808 14.6847 14.795C14.4675 14.795 14.4531 14.8093 14.6412 14.8945C14.8439 14.9798 14.8439 15.0224 14.6123 15.2356C14.3662 15.4772 14.3517 15.463 14.3517 14.994ZM16.2336 14.994C16.2336 14.5961 16.2915 14.4966 16.5231 14.4966C16.6823 14.4966 16.8126 14.5534 16.8126 14.6387C16.8126 14.7098 16.7257 14.7808 16.6389 14.7808C16.5086 14.7808 16.5231 14.8377 16.6678 14.9229C16.856 15.0366 16.8415 15.0651 16.5954 15.0793C16.3494 15.0935 16.3494 15.1077 16.5665 15.1646C16.8994 15.2498 16.885 15.4914 16.5231 15.4914C16.2915 15.4914 16.2336 15.392 16.2336 14.994ZM20.4025 14.8519C20.6486 15.3777 20.6196 15.4204 20.1275 15.4346C19.7801 15.4488 19.7077 15.4062 19.7945 15.2214C19.8066 15.186 19.8219 15.144 19.8385 15.0988C19.8816 14.9809 19.9328 14.841 19.9538 14.7382C20.0551 14.3971 20.2143 14.4397 20.4025 14.8519ZM22.2264 14.724C22.3422 15.0366 22.3422 15.0935 22.183 14.994C22.1106 14.9514 22.0093 15.0651 21.9803 15.2356C21.9369 15.4488 21.908 15.3635 21.8935 15.0224C21.879 14.4824 22.0672 14.3118 22.2264 14.724ZM22.7475 14.994C22.7475 15.3351 22.5304 15.5909 22.4146 15.392C22.3712 15.3209 22.3712 15.1077 22.4146 14.8945C22.5015 14.4255 22.7475 14.5108 22.7475 14.994ZM24.7596 14.7382C24.9333 15.0651 24.7017 15.4914 24.3398 15.4914C24.1082 15.4914 24.0503 15.392 24.0503 14.994C24.0503 14.5961 24.1082 14.4966 24.3398 14.4966C24.4846 14.4966 24.6728 14.6103 24.7596 14.7382ZM28.364 15.1077L28.4509 14.8093C28.6101 14.326 28.8273 14.4397 28.8273 14.994C28.8273 15.4488 28.5522 15.7331 28.5233 15.3067C28.5233 15.1646 28.4943 15.1646 28.4364 15.3067C28.3351 15.5767 28.1035 15.5341 28.089 15.2356C28.0745 15.0082 28.0601 15.0082 28.0022 15.2498C27.9153 15.5767 27.6692 15.4062 27.6692 15.0082C27.6692 14.525 27.8429 14.4397 28.118 14.795L28.364 15.1077ZM30.8828 14.7382C30.9841 15.2072 30.8249 15.4914 30.4775 15.4914C30.188 15.4914 30.1301 15.4204 30.1301 15.0935C30.1301 14.8661 30.1735 14.6387 30.2314 14.5961C30.4196 14.4113 30.8394 14.4966 30.8828 14.7382ZM32.8949 14.6387C32.9238 14.8377 32.9238 15.3209 32.8949 15.4488C32.8804 15.5199 32.8225 15.4772 32.7501 15.3635C32.6343 15.193 32.5764 15.193 32.3882 15.3351C32.1856 15.5057 32.1566 15.463 32.1566 15.0082C32.1566 14.5534 32.2001 14.4966 32.5185 14.4966C32.7212 14.4966 32.8949 14.5534 32.8949 14.6387ZM34.6175 15.463C34.2556 15.4204 34.0819 15.0935 34.2411 14.6956C34.328 14.4682 34.907 14.4113 34.907 14.6387C34.907 14.7098 34.7912 14.7808 34.6609 14.795C34.4438 14.795 34.4438 14.8235 34.6898 14.9229C34.9649 15.0366 34.9649 15.0509 34.7043 15.0509C34.5678 15.0576 34.4957 15.0611 34.4879 15.0853C34.4792 15.1125 34.5513 15.1656 34.7043 15.2783L34.7044 15.2783L34.7044 15.2784C34.8335 15.3839 34.8985 15.4372 34.8892 15.4606C34.8796 15.4845 34.7928 15.4774 34.6175 15.463ZM29.2181 18.5613C29.4063 18.675 29.6379 18.945 29.7537 19.1724C29.9853 19.5988 30.2459 19.7551 30.7236 19.7551C30.8683 19.7551 30.9986 19.8546 30.9986 19.9683C30.9986 20.082 30.9407 20.1815 30.8828 20.1815C30.8249 20.1815 30.4051 20.4942 29.9708 20.8779C29.2615 21.489 29.1457 21.688 28.9865 22.3986C28.6536 23.8625 28.3351 24.4026 27.5245 24.8858C26.8007 25.3264 26.7862 25.3406 27.0178 25.6675C27.235 25.9944 27.1915 26.3781 26.9744 26.236C26.9165 26.2075 26.7138 26.2644 26.5112 26.3639C26.1927 26.5344 26.2796 26.5486 27.4521 26.6481C28.1759 26.6908 29.6089 26.8187 30.6367 26.9182C31.6789 27.0176 32.533 27.0887 32.5619 27.0745C32.5909 27.0461 32.3738 26.8897 32.0987 26.7192C31.5342 26.3923 31.4039 26.0086 31.8526 26.0086C32.1277 26.0086 33.6476 26.4207 35.6163 27.0461C36.8033 27.4156 37.1217 27.7141 36.3111 27.7141C36.0505 27.7141 35.211 27.842 34.4582 27.9841C32.6199 28.3678 30.9262 28.5242 31.0565 28.2968C31.1144 28.2115 31.4039 28.0125 31.6934 27.8704C32.0553 27.6856 32.1566 27.5719 32.0119 27.5293C31.7947 27.4582 28.1903 27.1313 24.2096 26.8329C23.1529 26.7618 22.2264 26.7476 22.1685 26.8187C21.9514 27.0176 21.0105 28.7231 21.0105 28.8937C20.996 29.1069 20.5038 29.7038 20.3301 29.7038C20.2722 29.7038 19.9972 30.1159 19.7222 30.6276C19.4616 31.1392 19.1866 31.523 19.1287 31.4803C19.0563 31.4377 18.9694 31.4661 18.9115 31.5372C18.8681 31.6224 18.651 31.4945 18.4194 31.2671L18.014 30.8408L17.6377 31.1819C17.4205 31.3808 17.2179 31.4661 17.1745 31.395C17.1166 31.324 16.9429 31.2671 16.7836 31.2671C16.4941 31.2671 16.4941 31.2529 16.7112 31.0113C16.856 30.8692 16.9573 30.6844 16.9573 30.5992C16.9573 30.5139 17.6087 29.6327 18.4049 28.6236C19.201 27.6146 19.8524 26.7334 19.8524 26.6623C19.8524 26.6055 18.5062 26.5629 16.8415 26.5913C13.6569 26.6481 13.5701 26.6765 11.8619 27.5861C11.5001 27.7709 11.1237 27.7567 11.254 27.5435C11.3264 27.4298 11.2829 27.4156 11.1237 27.4724C10.9789 27.5293 10.6605 27.4298 10.371 27.2735C10.0959 27.1171 9.80642 27.0176 9.71957 27.0745C9.64719 27.1171 9.57481 27.1171 9.57481 27.0461C9.57481 26.9892 9.84985 26.776 10.1973 26.5913L10.8052 26.236L10.3275 26.1365C10.067 26.0796 9.80642 26.0086 9.76299 25.9659C9.63271 25.8238 10.067 25.0137 10.2696 25.0137C10.371 25.0137 10.4144 24.9426 10.3565 24.8574C10.2986 24.7437 10.3565 24.7295 10.5736 24.8005C11.0947 24.9569 11.6593 24.9853 11.9633 24.8432C12.1949 24.7437 12.5857 24.8574 13.7003 25.3832L15.1334 26.0512L17.6956 26.1223L20.2577 26.1933L20.4894 25.7385C20.6196 25.4969 20.692 25.2269 20.6486 25.1558C20.6052 25.0848 20.6775 24.8574 20.8078 24.6584C20.9381 24.4594 21.0105 24.2036 20.9526 24.0899C20.9091 23.9478 21.025 23.8057 21.3145 23.6493C21.5605 23.5356 22.3277 22.8676 23.037 22.1712C23.7463 21.4748 24.4991 20.8211 24.7307 20.6932C24.9478 20.5795 25.3966 20.1673 25.715 19.7836C26.8875 18.3765 28.1903 17.9218 29.2181 18.5613ZM10.8776 37.4495C10.8776 36.5541 10.8631 36.5257 10.5157 36.5257C10.3131 36.5257 10.1538 36.4546 10.1538 36.3836C10.1538 36.2983 10.5447 36.2414 11.0224 36.2414C11.5001 36.2414 11.8909 36.2983 11.8909 36.3836C11.8909 36.4546 11.7317 36.5257 11.529 36.5257C11.1816 36.5257 11.1671 36.5541 11.1671 37.4495C11.1671 37.9754 11.1092 38.3733 11.0224 38.3733C10.9355 38.3733 10.8776 37.9754 10.8776 37.4495ZM14.5399 37.1653C14.9887 38.2312 15.0321 38.487 14.7136 38.2312C14.5978 38.1317 14.4965 37.9611 14.4965 37.8617C14.4965 37.7337 14.3373 37.6627 14.0622 37.6627C13.7438 37.6627 13.5845 37.7622 13.4398 38.0322C13.324 38.2454 13.2082 38.3591 13.1647 38.288C13.0345 38.0891 13.7872 36.2414 13.9754 36.2414C14.0767 36.2414 14.3228 36.6536 14.5399 37.1653ZM17.9127 36.4831C18.0864 36.6536 18.1009 36.7389 17.9706 36.7815C17.8693 36.8242 17.739 36.7673 17.6811 36.6678C17.5508 36.4688 16.9284 36.5257 16.856 36.7673C16.8126 36.8668 17.0442 36.9947 17.3771 37.0942C18.0575 37.2647 18.1733 37.4069 18.0575 37.8759C17.9417 38.3022 17.3771 38.4728 16.8705 38.2454C16.5375 38.1033 16.3783 37.6627 16.6678 37.6627C16.7547 37.6627 16.8126 37.7195 16.8126 37.7906C16.8126 37.9754 17.2468 38.1033 17.5508 38.018C18.014 37.8617 17.8548 37.549 17.2179 37.35C16.5665 37.151 16.3638 36.8099 16.6678 36.4546C16.9139 36.1704 17.6087 36.1846 17.9127 36.4831ZM19.9972 36.2414C20.084 36.2414 20.1419 36.4262 20.1419 36.6678C20.1419 37.0658 20.1854 37.0942 20.6486 37.0942C21.1118 37.0942 21.1552 37.0658 21.1552 36.6678C21.1552 36.4262 21.2276 36.2414 21.3 36.2414C21.3868 36.2414 21.4447 36.6962 21.4447 37.3216C21.4447 37.9896 21.3868 38.3591 21.3 38.3022C21.2276 38.2596 21.1552 38.0322 21.1552 37.7906C21.1552 37.4069 21.1118 37.3784 20.6486 37.3784C20.1709 37.3784 20.1419 37.4069 20.1419 37.8759C20.1419 38.1459 20.084 38.3733 19.9972 38.3733C19.9103 38.3733 19.8524 37.9185 19.8524 37.3074C19.8524 36.6962 19.9103 36.2414 19.9972 36.2414ZM23.6161 36.6962V37.151L24.0938 36.6962C24.7017 36.1135 25.1215 36.0851 24.557 36.6678L24.1517 37.08L24.5425 37.6769C24.7596 37.9896 24.9044 38.3022 24.8465 38.3449C24.7596 38.4301 24.6438 38.3164 24.1227 37.6058C23.8766 37.2789 23.6161 37.4211 23.6161 37.8759C23.6161 38.0606 23.5582 38.2596 23.4713 38.3022C23.3121 38.4017 23.2976 38.3307 23.2976 37.6627C23.2976 36.5541 23.341 36.2414 23.4713 36.2414C23.5582 36.2414 23.6161 36.4404 23.6161 36.6962ZM26.5112 37.2363V36.2414H27.3073C27.7416 36.2414 28.1035 36.2983 28.1035 36.3836C28.1035 36.4546 27.7995 36.5257 27.4376 36.5257C26.8875 36.5257 26.7862 36.5683 26.8296 36.7673C26.8586 36.9521 27.0323 37.0373 27.4231 37.0658C28.1469 37.1226 28.118 37.3784 27.3797 37.3784C26.8586 37.3784 26.8007 37.4069 26.8586 37.6911C26.8875 37.9611 27.0178 38.0322 27.5389 38.0891C27.8864 38.1317 28.0745 38.2028 27.9587 38.2454C27.7705 38.3164 27.3652 38.3164 26.6994 38.2454C26.5691 38.2312 26.5112 37.9327 26.5112 37.2363ZM30.6367 36.9805L31.1433 37.7337V36.9805C31.1433 36.5825 31.2157 36.2414 31.2881 36.2414C31.375 36.2414 31.4329 36.6962 31.4329 37.3216C31.4329 38.5581 31.346 38.5723 30.5643 37.4069L30.1301 36.7673V37.4921C30.1301 37.8901 30.0722 38.2596 29.9853 38.3022C29.8984 38.3591 29.8405 37.9896 29.8405 37.3216C29.8405 36.7105 29.8984 36.2414 29.9853 36.2414C30.0577 36.2414 30.3472 36.5825 30.6367 36.9805ZM33.7779 37.4069C33.7345 36.6394 33.691 36.5257 33.4594 36.5257C33.3002 36.5257 33.1699 36.4546 33.1699 36.3836C33.1699 36.2983 33.5318 36.2414 33.9661 36.2414C34.4003 36.2414 34.7622 36.2983 34.7622 36.3836C34.7622 36.4546 34.6319 36.5257 34.4727 36.5257C34.2411 36.5257 34.1977 36.6394 34.1543 37.4069C34.1253 37.9043 34.0529 38.3022 33.9661 38.3022C33.8937 38.3022 33.8068 37.9043 33.7779 37.4069ZM5.23216 11.7536C5.23216 11.9384 5.30453 12.0805 5.37691 12.0805C5.56509 12.0805 5.56509 11.9242 5.37691 11.6541C5.26111 11.4836 5.23216 11.4978 5.23216 11.7536ZM7.63508 11.7963C7.34557 11.7963 7.25872 11.7252 7.25872 11.4978C7.25872 11.2846 7.33109 11.2136 7.57718 11.2562C8.06934 11.3273 8.11277 11.7963 7.63508 11.7963ZM9.57478 11.4978C9.57478 11.7252 9.66164 11.7963 9.95115 11.7963C10.4288 11.7963 10.3854 11.3273 9.89324 11.2562C9.64716 11.2136 9.57478 11.2846 9.57478 11.4978ZM11.8474 11.9384C11.8474 11.6968 11.9343 11.4267 12.0501 11.3557C12.383 11.1567 12.6002 11.2135 12.8463 11.5831C13.0634 11.9099 13.0634 11.9668 12.8463 12.2937C12.4409 12.8906 11.8474 12.6774 11.8474 11.9384ZM20.692 12.1658C20.5328 12.3079 20.7354 12.649 20.967 12.649C21.0828 12.649 21.1552 12.5495 21.1263 12.4074C21.0828 12.1516 20.8368 12.0237 20.692 12.1658ZM26.598 11.7963C26.2361 11.7963 26.0914 11.5404 26.323 11.313C26.4967 11.1425 26.8731 11.2846 26.9165 11.5547C26.9599 11.7252 26.8731 11.7963 26.598 11.7963ZM28.5377 11.8673C28.5377 11.981 28.6101 12.0805 28.6825 12.0805C28.7693 12.0805 28.8272 11.981 28.8272 11.8673C28.8272 11.7536 28.7693 11.6541 28.6825 11.6541C28.6101 11.6541 28.5377 11.7536 28.5377 11.8673ZM30.9407 11.7963C30.6512 11.7963 30.5643 11.7252 30.5643 11.4978C30.5643 11.2846 30.6367 11.2136 30.8828 11.2562C31.3749 11.3273 31.4184 11.7963 30.9407 11.7963ZM32.8804 11.512C32.8804 11.7252 32.9817 11.7963 33.2423 11.7963C33.5028 11.7963 33.6042 11.7252 33.6042 11.512C33.6042 11.2988 33.5028 11.2278 33.2423 11.2278C32.9817 11.2278 32.8804 11.2988 32.8804 11.512ZM35.2544 12.2937C35.0373 11.9668 35.0373 11.91 35.2544 11.5831C35.5873 11.0856 36.0505 11.1425 36.2532 11.711C36.3835 12.0237 36.0071 12.649 35.7031 12.649C35.5873 12.649 35.3847 12.4927 35.2544 12.2937ZM24.1951 14.994C24.1951 15.1077 24.2964 15.2072 24.4122 15.2072C24.528 15.2072 24.6293 15.1077 24.6293 14.994C24.6293 14.8803 24.528 14.7808 24.4122 14.7808C24.2964 14.7808 24.1951 14.8803 24.1951 14.994ZM30.6801 15.0225C30.6222 15.3351 30.3617 15.3067 30.3038 15.0083C30.2748 14.8661 30.3472 14.7809 30.492 14.7809C30.6367 14.7809 30.7091 14.8804 30.6801 15.0225ZM13.8596 36.881C13.7148 37.2505 13.7582 37.3785 13.9899 37.3785C14.2359 37.3785 14.2649 37.1226 14.0767 36.8384C13.9754 36.6821 13.9319 36.6963 13.8596 36.881Z" fill="white"/>
</svg>
