<svg width="796" height="371" viewBox="0 0 796 371" fill="none" xmlns="http://www.w3.org/2000/svg">
<path d="M29.6911 351.025H776.757" stroke="#CCCCCC" stroke-width="0.957776" stroke-dasharray="3.83 1.92"/>
<path d="M29.6911 265.065H776.757" stroke="#CCCCCC" stroke-width="0.957776" stroke-dasharray="3.83 1.92"/>
<path d="M29.6911 179.104H776.757" stroke="#CCCCCC" stroke-width="0.957776" stroke-dasharray="3.83 1.92"/>
<path d="M29.6911 93.1438H776.757" stroke="#CCCCCC" stroke-width="0.957776" stroke-dasharray="3.83 1.92"/>
<path d="M29.6911 7.18332H776.757" stroke="#CCCCCC" stroke-width="0.957776" stroke-dasharray="3.83 1.92"/>
<path d="M30.17 6.70443V351.504" stroke="#CCCCCC" stroke-width="0.957776" stroke-dasharray="3.83 1.92"/>
<path d="M154.521 6.70444V351.504" stroke="#CCCCCC" stroke-width="0.957776" stroke-dasharray="3.83 1.92"/>
<path d="M278.873 6.70444V351.504" stroke="#CCCCCC" stroke-width="0.957776" stroke-dasharray="3.83 1.92"/>
<path d="M403.224 6.70444V351.504" stroke="#CCCCCC" stroke-width="0.957776" stroke-dasharray="3.83 1.92"/>
<path d="M527.575 6.70444V351.504" stroke="#CCCCCC" stroke-width="0.957776" stroke-dasharray="3.83 1.92"/>
<path d="M651.927 6.70444V351.504" stroke="#CCCCCC" stroke-width="0.957776" stroke-dasharray="3.83 1.92"/>
<path d="M776.278 6.70444V351.504" stroke="#CCCCCC" stroke-width="0.957776" stroke-dasharray="3.83 1.92"/>
<path d="M19.7523 349.105V350.351C19.7523 351.021 19.6924 351.586 19.5727 352.046C19.453 352.506 19.2809 352.876 19.0564 353.157C18.8319 353.438 18.5607 353.642 18.2426 353.769C17.9284 353.892 17.573 353.954 17.1764 353.954C16.8621 353.954 16.5721 353.915 16.3065 353.836C16.0409 353.758 15.8014 353.632 15.5882 353.46C15.3787 353.284 15.1991 353.056 15.0494 352.775C14.8998 352.495 14.7857 352.154 14.7071 351.754C14.6285 351.354 14.5893 350.886 14.5893 350.351V349.105C14.5893 348.436 14.6491 347.874 14.7688 347.422C14.8923 346.969 15.0663 346.606 15.2907 346.333C15.5152 346.056 15.7846 345.858 16.0989 345.738C16.4169 345.618 16.7723 345.558 17.1651 345.558C17.4832 345.558 17.775 345.598 18.0406 345.676C18.31 345.751 18.5494 345.873 18.7589 346.041C18.9685 346.206 19.1462 346.426 19.2921 346.703C19.4417 346.976 19.5558 347.311 19.6344 347.708C19.713 348.104 19.7523 348.57 19.7523 349.105ZM18.7084 350.519V348.931C18.7084 348.565 18.686 348.243 18.6411 347.966C18.5999 347.685 18.5382 347.446 18.4559 347.248C18.3736 347.049 18.2688 346.889 18.1416 346.765C18.0182 346.642 17.8741 346.552 17.7095 346.496C17.5486 346.436 17.3672 346.406 17.1651 346.406C16.9182 346.406 16.6994 346.453 16.5085 346.546C16.3177 346.636 16.1569 346.78 16.0259 346.978C15.8987 347.177 15.8014 347.437 15.7341 347.758C15.6668 348.08 15.6331 348.471 15.6331 348.931V350.519C15.6331 350.886 15.6537 351.21 15.6948 351.49C15.7397 351.771 15.8052 352.014 15.8912 352.22C15.9773 352.422 16.082 352.588 16.2055 352.719C16.329 352.85 16.4711 352.948 16.632 353.011C16.7966 353.071 16.9781 353.101 17.1764 353.101C17.4308 353.101 17.6534 353.052 17.8442 352.955C18.035 352.858 18.194 352.706 18.3212 352.5C18.4522 352.291 18.5494 352.023 18.613 351.698C18.6766 351.369 18.7084 350.976 18.7084 350.519Z" fill="#11150E"/>
<path d="M12.8073 267.028V267.881H7.45911V267.135L10.136 264.155C10.4653 263.788 10.7197 263.478 10.8992 263.223C11.0826 262.965 11.2098 262.735 11.2809 262.533C11.3557 262.327 11.3931 262.118 11.3931 261.905C11.3931 261.635 11.337 261.392 11.2247 261.175C11.1162 260.954 10.9554 260.778 10.7421 260.647C10.5289 260.517 10.2707 260.451 9.96766 260.451C9.60475 260.451 9.30171 260.522 9.05852 260.664C8.81908 260.803 8.63949 260.997 8.51977 261.248C8.40005 261.499 8.34019 261.787 8.34019 262.112H7.30197C7.30197 261.652 7.40299 261.231 7.60502 260.85C7.80705 260.468 8.10636 260.165 8.50294 259.94C8.89951 259.712 9.38776 259.598 9.96766 259.598C10.484 259.598 10.9254 259.69 11.2921 259.873C11.6587 260.053 11.9393 260.307 12.1339 260.636C12.3322 260.962 12.4313 261.343 12.4313 261.781C12.4313 262.021 12.3902 262.264 12.3079 262.511C12.2293 262.754 12.1189 262.997 11.9767 263.24C11.8383 263.483 11.6756 263.723 11.4885 263.959C11.3052 264.194 11.1088 264.426 10.8992 264.654L8.71058 267.028H12.8073ZM15.2317 263.992L14.4011 263.779L14.8108 259.71H19.0029V260.67H15.6919L15.4449 262.892C15.5946 262.806 15.7835 262.726 16.0118 262.651C16.2437 262.576 16.5093 262.539 16.8087 262.539C17.1865 262.539 17.5251 262.604 17.8244 262.735C18.1237 262.862 18.3781 263.046 18.5876 263.285C18.8009 263.525 18.9636 263.813 19.0759 264.149C19.1881 264.486 19.2442 264.862 19.2442 265.277C19.2442 265.67 19.19 266.031 19.0815 266.36C18.9767 266.69 18.8177 266.978 18.6045 267.225C18.3912 267.468 18.1219 267.657 17.7964 267.792C17.4746 267.926 17.0949 267.994 16.6571 267.994C16.3279 267.994 16.0155 267.949 15.7199 267.859C15.4281 267.765 15.1662 267.625 14.9343 267.438C14.706 267.247 14.519 267.011 14.3731 266.731C14.2309 266.447 14.1411 266.114 14.1037 265.732H15.0914C15.1363 266.039 15.2261 266.297 15.3608 266.506C15.4955 266.716 15.6713 266.875 15.8883 266.983C16.109 267.088 16.3653 267.141 16.6571 267.141C16.9041 267.141 17.1229 267.098 17.3137 267.011C17.5045 266.925 17.6654 266.802 17.7964 266.641C17.9273 266.48 18.0265 266.286 18.0938 266.057C18.1649 265.829 18.2004 265.573 18.2004 265.289C18.2004 265.03 18.1649 264.791 18.0938 264.57C18.0227 264.35 17.9161 264.157 17.7739 263.992C17.6355 263.828 17.4653 263.7 17.2632 263.611C17.0612 263.517 16.8292 263.47 16.5673 263.47C16.2194 263.47 15.9556 263.517 15.776 263.611C15.6002 263.704 15.4188 263.831 15.2317 263.992Z" fill="#11150E"/>
<path d="M8.7667 178.032L7.93613 177.819L8.3458 173.75H12.5379V174.709H9.22688L8.97995 176.932C9.12961 176.846 9.31854 176.765 9.54676 176.691C9.77872 176.616 10.0444 176.578 10.3437 176.578C10.7215 176.578 11.0601 176.644 11.3594 176.775C11.6587 176.902 11.9131 177.085 12.1227 177.325C12.3359 177.564 12.4987 177.852 12.6109 178.189C12.7231 178.526 12.7793 178.902 12.7793 179.317C12.7793 179.71 12.725 180.071 12.6165 180.4C12.5118 180.729 12.3527 181.017 12.1395 181.264C11.9262 181.507 11.6569 181.696 11.3314 181.831C11.0096 181.966 10.6299 182.033 10.1921 182.033C9.8629 182.033 9.5505 181.988 9.25494 181.898C8.96312 181.805 8.70123 181.665 8.46926 181.478C8.24104 181.287 8.05398 181.051 7.90807 180.77C7.7659 180.486 7.67611 180.153 7.63869 179.771H8.6264C8.67129 180.078 8.76109 180.336 8.89577 180.546C9.03046 180.755 9.2063 180.914 9.4233 181.023C9.64404 181.128 9.90032 181.18 10.1921 181.18C10.4391 181.18 10.6579 181.137 10.8487 181.051C11.0395 180.965 11.2004 180.841 11.3314 180.681C11.4623 180.52 11.5615 180.325 11.6288 180.097C11.6999 179.869 11.7354 179.612 11.7354 179.328C11.7354 179.07 11.6999 178.831 11.6288 178.61C11.5577 178.389 11.4511 178.196 11.3089 178.032C11.1705 177.867 11.0003 177.74 10.7982 177.65C10.5962 177.557 10.3642 177.51 10.1023 177.51C9.75441 177.51 9.49064 177.557 9.31106 177.65C9.13522 177.744 8.95376 177.871 8.7667 178.032ZM19.0478 177.184V178.43C19.0478 179.1 18.988 179.665 18.8682 180.125C18.7485 180.585 18.5764 180.956 18.3519 181.236C18.1275 181.517 17.8562 181.721 17.5382 181.848C17.2239 181.971 16.8685 182.033 16.4719 182.033C16.1577 182.033 15.8677 181.994 15.6021 181.915C15.3364 181.837 15.097 181.711 14.8837 181.539C14.6742 181.363 14.4946 181.135 14.345 180.855C14.1953 180.574 14.0812 180.234 14.0027 179.833C13.9241 179.433 13.8848 178.965 13.8848 178.43V177.184C13.8848 176.515 13.9447 175.953 14.0644 175.501C14.1879 175.048 14.3618 174.685 14.5863 174.412C14.8108 174.135 15.0802 173.937 15.3944 173.817C15.7124 173.697 16.0679 173.638 16.4607 173.638C16.7787 173.638 17.0705 173.677 17.3362 173.755C17.6056 173.83 17.845 173.952 18.0545 174.12C18.264 174.285 18.4417 174.506 18.5876 174.782C18.7373 175.056 18.8514 175.39 18.93 175.787C19.0085 176.184 19.0478 176.649 19.0478 177.184ZM18.004 178.599V177.01C18.004 176.644 17.9816 176.322 17.9367 176.045C17.8955 175.765 17.8338 175.525 17.7515 175.327C17.6692 175.129 17.5644 174.968 17.4372 174.844C17.3137 174.721 17.1697 174.631 17.0051 174.575C16.8442 174.515 16.6627 174.485 16.4607 174.485C16.2138 174.485 15.9949 174.532 15.8041 174.625C15.6133 174.715 15.4524 174.859 15.3215 175.057C15.1943 175.256 15.097 175.516 15.0297 175.837C14.9623 176.159 14.9286 176.55 14.9286 177.01V178.599C14.9286 178.965 14.9492 179.289 14.9904 179.569C15.0353 179.85 15.1007 180.093 15.1868 180.299C15.2728 180.501 15.3776 180.668 15.5011 180.798C15.6245 180.929 15.7667 181.027 15.9276 181.09C16.0922 181.15 16.2736 181.18 16.4719 181.18C16.7263 181.18 16.949 181.131 17.1398 181.034C17.3306 180.937 17.4896 180.785 17.6168 180.58C17.7477 180.37 17.845 180.103 17.9086 179.777C17.9722 179.448 18.004 179.055 18.004 178.599Z" fill="#11150E"/>
<path d="M12.7344 87.7894V88.373L9.35034 95.9604H8.25601L11.6344 88.6424H7.21218V87.7894H12.7344ZM15.2317 92.0713L14.4011 91.8581L14.8108 87.7894H19.0029V88.7491H15.6919L15.4449 90.9714C15.5946 90.8853 15.7835 90.8049 16.0118 90.7301C16.2437 90.6553 16.5093 90.6178 16.8087 90.6178C17.1865 90.6178 17.5251 90.6833 17.8244 90.8143C18.1237 90.9415 18.3781 91.1248 18.5876 91.3642C18.8009 91.6037 18.9636 91.8918 19.0759 92.2285C19.1881 92.5652 19.2442 92.9412 19.2442 93.3565C19.2442 93.7493 19.19 94.1104 19.0815 94.4396C18.9767 94.7688 18.8177 95.0569 18.6045 95.3038C18.3912 95.547 18.1219 95.736 17.7964 95.8706C17.4746 96.0053 17.0949 96.0727 16.6571 96.0727C16.3279 96.0727 16.0155 96.0278 15.7199 95.938C15.4281 95.8445 15.1662 95.7042 14.9343 95.5171C14.706 95.3263 14.519 95.0906 14.3731 94.81C14.2309 94.5256 14.1411 94.1927 14.1037 93.811H15.0914C15.1363 94.1178 15.2261 94.376 15.3608 94.5855C15.4955 94.795 15.6713 94.954 15.8883 95.0625C16.109 95.1673 16.3653 95.2197 16.6571 95.2197C16.9041 95.2197 17.1229 95.1766 17.3137 95.0906C17.5045 95.0045 17.6654 94.8811 17.7964 94.7202C17.9273 94.5593 18.0265 94.3648 18.0938 94.1365C18.1649 93.9083 18.2004 93.652 18.2004 93.3677C18.2004 93.1096 18.1649 92.8701 18.0938 92.6494C18.0227 92.4286 17.9161 92.236 17.7739 92.0713C17.6355 91.9067 17.4653 91.7795 17.2632 91.6897C17.0612 91.5962 16.8292 91.5494 16.5673 91.5494C16.2194 91.5494 15.9556 91.5962 15.776 91.6897C15.6002 91.7833 15.4188 91.9105 15.2317 92.0713Z" fill="#11150E"/>
<path d="M4.69616 1.78407V10H3.65794V3.08044L1.56468 3.84367V2.90647L4.53341 1.78407H4.69616ZM12.8784 5.2635V6.50935C12.8784 7.17905 12.8185 7.74399 12.6988 8.20417C12.5791 8.66435 12.407 9.03474 12.1825 9.31534C11.958 9.59594 11.6868 9.79984 11.3688 9.92704C11.0545 10.0505 10.6991 10.1122 10.3025 10.1122C9.98824 10.1122 9.69829 10.073 9.43266 9.99439C9.16703 9.91582 8.92758 9.79049 8.71433 9.61839C8.50481 9.44254 8.32523 9.21432 8.17558 8.93373C8.02592 8.65313 7.91181 8.31267 7.83325 7.91235C7.75468 7.51203 7.7154 7.04436 7.7154 6.50935V5.2635C7.7154 4.5938 7.77526 4.0326 7.89498 3.57991C8.01844 3.12721 8.19241 2.7643 8.41689 2.49118C8.64137 2.21433 8.91075 2.01604 9.22502 1.89631C9.54303 1.77659 9.89845 1.71673 10.2913 1.71673C10.6093 1.71673 10.9011 1.75601 11.1668 1.83458C11.4361 1.90941 11.6756 2.031 11.8851 2.19936C12.0946 2.36398 12.2723 2.58472 12.4182 2.86157C12.5679 3.13469 12.682 3.46954 12.7606 3.86612C12.8391 4.26269 12.8784 4.72849 12.8784 5.2635ZM11.8346 6.67771V5.08953C11.8346 4.72288 11.8121 4.40112 11.7672 4.12427C11.7261 3.84367 11.6644 3.60422 11.582 3.40593C11.4997 3.20764 11.395 3.04677 11.2678 2.9233C11.1443 2.79984 11.0003 2.71005 10.8357 2.65393C10.6748 2.59407 10.4933 2.56414 10.2913 2.56414C10.0444 2.56414 9.8255 2.6109 9.63469 2.70444C9.44388 2.79423 9.28301 2.93827 9.15206 3.13656C9.02486 3.33485 8.92758 3.59487 8.86024 3.91662C8.79289 4.23838 8.75922 4.62934 8.75922 5.08953V6.67771C8.75922 7.04436 8.7798 7.36799 8.82095 7.64858C8.86585 7.92918 8.93132 8.17237 9.01737 8.37814C9.10342 8.58017 9.20818 8.74666 9.33164 8.87761C9.45511 9.00855 9.59728 9.10583 9.75815 9.16943C9.92277 9.22929 10.1042 9.25922 10.3025 9.25922C10.5569 9.25922 10.7795 9.21058 10.9703 9.11331C11.1611 9.01603 11.3202 8.86451 11.4474 8.65874C11.5783 8.44923 11.6756 8.18172 11.7392 7.85623C11.8028 7.52699 11.8346 7.13415 11.8346 6.67771ZM19.3434 5.2635V6.50935C19.3434 7.17905 19.2835 7.74399 19.1638 8.20417C19.0441 8.66435 18.872 9.03474 18.6475 9.31534C18.423 9.59594 18.1518 9.79984 17.8338 9.92704C17.5195 10.0505 17.1641 10.1122 16.7675 10.1122C16.4532 10.1122 16.1633 10.073 15.8976 9.99439C15.632 9.91582 15.3926 9.79049 15.1793 9.61839C14.9698 9.44254 14.7902 9.21432 14.6406 8.93373C14.4909 8.65313 14.3768 8.31267 14.2982 7.91235C14.2197 7.51203 14.1804 7.04436 14.1804 6.50935V5.2635C14.1804 4.5938 14.2402 4.0326 14.36 3.57991C14.4834 3.12721 14.6574 2.7643 14.8819 2.49118C15.1064 2.21433 15.3757 2.01604 15.69 1.89631C16.008 1.77659 16.3634 1.71673 16.7563 1.71673C17.0743 1.71673 17.3661 1.75601 17.6317 1.83458C17.9011 1.90941 18.1406 2.031 18.3501 2.19936C18.5596 2.36398 18.7373 2.58472 18.8832 2.86157C19.0329 3.13469 19.147 3.46954 19.2255 3.86612C19.3041 4.26269 19.3434 4.72849 19.3434 5.2635ZM18.2996 6.67771V5.08953C18.2996 4.72288 18.2771 4.40112 18.2322 4.12427C18.1911 3.84367 18.1293 3.60422 18.047 3.40593C17.9647 3.20764 17.86 3.04677 17.7328 2.9233C17.6093 2.79984 17.4653 2.71005 17.3006 2.65393C17.1398 2.59407 16.9583 2.56414 16.7563 2.56414C16.5094 2.56414 16.2905 2.6109 16.0997 2.70444C15.9089 2.79423 15.748 2.93827 15.6171 3.13656C15.4898 3.33485 15.3926 3.59487 15.3252 3.91662C15.2579 4.23838 15.2242 4.62934 15.2242 5.08953V6.67771C15.2242 7.04436 15.2448 7.36799 15.2859 7.64858C15.3308 7.92918 15.3963 8.17237 15.4824 8.37814C15.5684 8.58017 15.6732 8.74666 15.7966 8.87761C15.9201 9.00855 16.0623 9.10583 16.2231 9.16943C16.3878 9.22929 16.5692 9.25922 16.7675 9.25922C17.0219 9.25922 17.2445 9.21058 17.4353 9.11331C17.6261 9.01603 17.7851 8.86451 17.9123 8.65874C18.0433 8.44923 18.1406 8.18172 18.2042 7.85623C18.2678 7.52699 18.2996 7.13415 18.2996 6.67771Z" fill="#11150E"/>
<path d="M11.3512 359.08H12.4006L15.0775 365.741L17.7488 359.08H18.8039L15.4816 367.251H14.6622L11.3512 359.08ZM11.0088 359.08H11.9348L12.0863 364.063V367.251H11.0088V359.08ZM18.2146 359.08H19.1406V367.251H18.0631V364.063L18.2146 359.08ZM20.6109 364.282V364.153C20.6109 363.715 20.6745 363.309 20.8017 362.935C20.9289 362.557 21.1122 362.23 21.3517 361.953C21.5911 361.672 21.8811 361.455 22.2215 361.302C22.562 361.145 22.9436 361.066 23.3664 361.066C23.7929 361.066 24.1764 361.145 24.5168 361.302C24.861 361.455 25.1529 361.672 25.3923 361.953C25.6355 362.23 25.8207 362.557 25.9479 362.935C26.0751 363.309 26.1387 363.715 26.1387 364.153V364.282C26.1387 364.72 26.0751 365.126 25.9479 365.5C25.8207 365.874 25.6355 366.201 25.3923 366.482C25.1529 366.759 24.8629 366.976 24.5224 367.133C24.1857 367.286 23.8041 367.363 23.3776 367.363C22.9511 367.363 22.5676 367.286 22.2272 367.133C21.8867 366.976 21.5949 366.759 21.3517 366.482C21.1122 366.201 20.9289 365.874 20.8017 365.5C20.6745 365.126 20.6109 364.72 20.6109 364.282ZM21.6491 364.153V364.282C21.6491 364.585 21.6847 364.871 21.7557 365.141C21.8268 365.406 21.9335 365.642 22.0756 365.848C22.2215 366.053 22.403 366.216 22.62 366.336C22.837 366.452 23.0895 366.51 23.3776 366.51C23.6619 366.51 23.9107 366.452 24.124 366.336C24.341 366.216 24.5206 366.053 24.6627 365.848C24.8049 365.642 24.9115 365.406 24.9826 365.141C25.0575 364.871 25.0949 364.585 25.0949 364.282V364.153C25.0949 363.853 25.0575 363.571 24.9826 363.305C24.9115 363.036 24.803 362.798 24.6571 362.593C24.515 362.383 24.3354 362.219 24.1184 362.099C23.9051 361.979 23.6545 361.919 23.3664 361.919C23.082 361.919 22.8314 361.979 22.6144 362.099C22.4011 362.219 22.2215 362.383 22.0756 362.593C21.9335 362.798 21.8268 363.036 21.7557 363.305C21.6847 363.571 21.6491 363.853 21.6491 364.153ZM28.4789 362.475V367.251H27.4407V361.178H28.4228L28.4789 362.475ZM28.232 363.984L27.7998 363.968C27.8036 363.552 27.8653 363.169 27.985 362.817C28.1048 362.462 28.2731 362.153 28.4901 361.891C28.7071 361.629 28.9653 361.427 29.2646 361.285C29.5676 361.139 29.9025 361.066 30.2691 361.066C30.5684 361.066 30.8378 361.107 31.0772 361.19C31.3167 361.268 31.5206 361.395 31.6889 361.571C31.861 361.747 31.992 361.975 32.0818 362.256C32.1716 362.533 32.2165 362.871 32.2165 363.272V367.251H31.1726V363.26C31.1726 362.942 31.1259 362.688 31.0323 362.497C30.9388 362.303 30.8022 362.162 30.6227 362.076C30.4431 361.987 30.2223 361.942 29.9604 361.942C29.7023 361.942 29.4666 361.996 29.2533 362.104C29.0438 362.213 28.8624 362.363 28.709 362.553C28.5593 362.744 28.4415 362.963 28.3554 363.21C28.2731 363.453 28.232 363.711 28.232 363.984ZM37.6208 366.072V358.631H38.6646V367.251H37.7106L37.6208 366.072ZM33.5353 364.282V364.164C33.5353 363.7 33.5914 363.279 33.7036 362.901C33.8196 362.52 33.9824 362.192 34.1919 361.919C34.4051 361.646 34.6577 361.437 34.9495 361.291C35.2451 361.141 35.5743 361.066 35.9372 361.066C36.3188 361.066 36.6518 361.134 36.9361 361.268C37.2242 361.399 37.4674 361.592 37.6657 361.846C37.8677 362.097 38.0267 362.4 38.1427 362.755C38.2587 363.111 38.3391 363.513 38.384 363.962V364.478C38.3429 364.924 38.2624 365.324 38.1427 365.679C38.0267 366.035 37.8677 366.338 37.6657 366.588C37.4674 366.839 37.2242 367.032 36.9361 367.166C36.648 367.297 36.3113 367.363 35.926 367.363C35.5706 367.363 35.2451 367.286 34.9495 367.133C34.6577 366.979 34.4051 366.764 34.1919 366.487C33.9824 366.211 33.8196 365.885 33.7036 365.511C33.5914 365.133 33.5353 364.723 33.5353 364.282ZM34.5791 364.164V364.282C34.5791 364.585 34.609 364.869 34.6689 365.135C34.7325 365.401 34.8298 365.634 34.9607 365.836C35.0917 366.038 35.2582 366.197 35.4602 366.313C35.6622 366.426 35.9035 366.482 36.1841 366.482C36.5283 366.482 36.8108 366.409 37.0315 366.263C37.256 366.117 37.4356 365.924 37.5703 365.685C37.705 365.445 37.8097 365.185 37.8846 364.905V363.552C37.8397 363.347 37.7742 363.148 37.6881 362.957C37.6058 362.763 37.4973 362.591 37.3626 362.441C37.2317 362.288 37.0689 362.166 36.8744 362.076C36.6836 361.987 36.4572 361.942 36.1953 361.942C35.911 361.942 35.666 362.002 35.4602 362.121C35.2582 362.237 35.0917 362.398 34.9607 362.604C34.8298 362.806 34.7325 363.042 34.6689 363.311C34.609 363.577 34.5791 363.861 34.5791 364.164ZM43.8613 366.212V363.087C43.8613 362.847 43.8127 362.639 43.7154 362.464C43.6219 362.284 43.4797 362.146 43.2889 362.048C43.0981 361.951 42.8624 361.902 42.5818 361.902C42.3199 361.902 42.0898 361.947 41.8915 362.037C41.697 362.127 41.5436 362.245 41.4313 362.391C41.3228 362.537 41.2686 362.694 41.2686 362.862H40.2304C40.2304 362.645 40.2865 362.43 40.3987 362.217C40.511 362.003 40.6718 361.811 40.8813 361.639C41.0946 361.463 41.349 361.324 41.6446 361.223C41.9439 361.119 42.2769 361.066 42.6435 361.066C43.085 361.066 43.4741 361.141 43.8108 361.291C44.1513 361.44 44.4169 361.667 44.6077 361.97C44.8022 362.269 44.8995 362.645 44.8995 363.098V365.926C44.8995 366.128 44.9164 366.343 44.95 366.572C44.9874 366.8 45.0417 366.996 45.1128 367.161V367.251H44.0297C43.9773 367.131 43.9361 366.972 43.9062 366.774C43.8763 366.572 43.8613 366.384 43.8613 366.212ZM44.0409 363.569L44.0521 364.299H43.0027C42.7071 364.299 42.4433 364.323 42.2114 364.372C41.9794 364.417 41.7849 364.486 41.6277 364.579C41.4706 364.673 41.3509 364.791 41.2686 364.933C41.1863 365.071 41.1451 365.234 41.1451 365.421C41.1451 365.612 41.1881 365.786 41.2742 365.943C41.3602 366.1 41.4893 366.225 41.6614 366.319C41.8373 366.409 42.0524 366.454 42.3068 366.454C42.6248 366.454 42.9054 366.386 43.1486 366.252C43.3918 366.117 43.5844 365.952 43.7266 365.758C43.8725 365.563 43.9511 365.374 43.9623 365.191L44.4057 365.69C44.3795 365.848 44.3084 366.022 44.1924 366.212C44.0764 366.403 43.9212 366.587 43.7266 366.762C43.5358 366.934 43.3076 367.079 43.042 367.194C42.7801 367.307 42.4845 367.363 42.1553 367.363C41.7437 367.363 41.3827 367.282 41.0722 367.122C40.7654 366.961 40.5259 366.746 40.3538 366.476C40.1855 366.203 40.1013 365.898 40.1013 365.561C40.1013 365.236 40.1649 364.95 40.2921 364.703C40.4193 364.452 40.6026 364.244 40.8421 364.08C41.0815 363.911 41.3696 363.784 41.7063 363.698C42.043 363.612 42.419 363.569 42.8343 363.569H44.0409ZM48.1488 366.622L49.8381 361.178H50.9492L48.5136 368.188C48.4575 368.337 48.3827 368.498 48.2891 368.67C48.1994 368.846 48.0834 369.013 47.9412 369.17C47.799 369.327 47.6269 369.454 47.4249 369.552C47.2266 369.653 46.989 369.703 46.7122 369.703C46.6299 369.703 46.5251 369.692 46.3979 369.669C46.2707 369.647 46.1809 369.628 46.1285 369.613L46.1229 368.771C46.1529 368.775 46.1996 368.779 46.2632 368.783C46.3306 368.79 46.3773 368.794 46.4035 368.794C46.6392 368.794 46.8394 368.762 47.004 368.698C47.1686 368.639 47.3071 368.536 47.4193 368.39C47.5353 368.248 47.6344 368.051 47.7167 367.801L48.1488 366.622ZM46.9086 361.178L48.4856 365.893L48.7549 366.987L48.0085 367.368L45.775 361.178H46.9086Z" fill="#11150E"/>
<path d="M137.206 359.08V367.251H136.139V359.08H137.206ZM139.832 359.08V359.966H133.519V359.08H139.832ZM144.064 365.848V361.178H145.107V367.251H144.114L144.064 365.848ZM144.26 364.568L144.692 364.557C144.692 364.961 144.649 365.335 144.563 365.679C144.481 366.02 144.346 366.315 144.159 366.566C143.972 366.817 143.727 367.013 143.424 367.155C143.121 367.294 142.752 367.363 142.318 367.363C142.023 367.363 141.751 367.32 141.505 367.234C141.261 367.148 141.052 367.015 140.876 366.835C140.7 366.656 140.564 366.422 140.466 366.134C140.373 365.846 140.326 365.5 140.326 365.096V361.178H141.364V365.107C141.364 365.38 141.394 365.606 141.454 365.786C141.518 365.962 141.602 366.102 141.707 366.207C141.815 366.308 141.935 366.379 142.066 366.42C142.2 366.461 142.339 366.482 142.481 366.482C142.922 366.482 143.272 366.398 143.53 366.229C143.789 366.057 143.974 365.827 144.086 365.539C144.202 365.247 144.26 364.924 144.26 364.568ZM149.21 367.363C148.787 367.363 148.404 367.292 148.059 367.15C147.719 367.004 147.425 366.8 147.178 366.538C146.935 366.276 146.748 365.965 146.617 365.606C146.486 365.247 146.421 364.854 146.421 364.428V364.192C146.421 363.698 146.494 363.259 146.639 362.873C146.785 362.484 146.984 362.155 147.234 361.886C147.485 361.616 147.769 361.412 148.087 361.274C148.405 361.135 148.735 361.066 149.075 361.066C149.509 361.066 149.883 361.141 150.197 361.291C150.515 361.44 150.775 361.65 150.978 361.919C151.18 362.185 151.329 362.499 151.426 362.862C151.524 363.221 151.572 363.614 151.572 364.041V364.506H147.038V363.659H150.534V363.58C150.519 363.311 150.463 363.049 150.366 362.795C150.272 362.54 150.123 362.331 149.917 362.166C149.711 362.002 149.43 361.919 149.075 361.919C148.839 361.919 148.622 361.97 148.424 362.071C148.226 362.168 148.056 362.314 147.913 362.508C147.771 362.703 147.661 362.941 147.582 363.221C147.504 363.502 147.464 363.825 147.464 364.192V364.428C147.464 364.716 147.504 364.987 147.582 365.242C147.665 365.492 147.782 365.713 147.936 365.904C148.093 366.095 148.282 366.244 148.503 366.353C148.727 366.461 148.982 366.515 149.266 366.515C149.633 366.515 149.943 366.441 150.197 366.291C150.452 366.141 150.674 365.941 150.865 365.69L151.494 366.19C151.363 366.388 151.196 366.577 150.994 366.757C150.792 366.936 150.544 367.082 150.248 367.194C149.956 367.307 149.61 367.363 149.21 367.363ZM156.32 365.64C156.32 365.49 156.286 365.352 156.219 365.225C156.156 365.094 156.023 364.976 155.821 364.871C155.622 364.763 155.323 364.669 154.923 364.591C154.586 364.519 154.281 364.435 154.008 364.338C153.739 364.241 153.509 364.123 153.318 363.984C153.131 363.846 152.987 363.683 152.886 363.496C152.785 363.309 152.734 363.09 152.734 362.84C152.734 362.6 152.786 362.374 152.891 362.161C153 361.947 153.151 361.758 153.346 361.594C153.544 361.429 153.782 361.3 154.058 361.207C154.335 361.113 154.644 361.066 154.984 361.066C155.471 361.066 155.886 361.152 156.23 361.324C156.575 361.496 156.838 361.727 157.022 362.015C157.205 362.299 157.297 362.615 157.297 362.963H156.258C156.258 362.795 156.208 362.632 156.107 362.475C156.01 362.314 155.866 362.181 155.675 362.076C155.488 361.972 155.258 361.919 154.984 361.919C154.696 361.919 154.463 361.964 154.283 362.054C154.107 362.14 153.978 362.25 153.896 362.385C153.817 362.52 153.778 362.662 153.778 362.812C153.778 362.924 153.797 363.025 153.834 363.115C153.875 363.201 153.946 363.281 154.047 363.356C154.148 363.427 154.29 363.494 154.474 363.558C154.657 363.622 154.891 363.685 155.175 363.749C155.673 363.861 156.083 363.996 156.404 364.153C156.726 364.31 156.966 364.503 157.123 364.731C157.28 364.959 157.358 365.236 157.358 365.561C157.358 365.827 157.302 366.07 157.19 366.291C157.081 366.512 156.922 366.703 156.713 366.863C156.507 367.021 156.26 367.144 155.972 367.234C155.688 367.32 155.368 367.363 155.013 367.363C154.478 367.363 154.025 367.267 153.654 367.077C153.284 366.886 153.003 366.639 152.813 366.336C152.622 366.033 152.526 365.713 152.526 365.376H153.57C153.585 365.661 153.668 365.887 153.817 366.055C153.967 366.22 154.15 366.338 154.367 366.409C154.584 366.476 154.799 366.51 155.013 366.51C155.297 366.51 155.534 366.472 155.725 366.398C155.92 366.323 156.068 366.22 156.169 366.089C156.27 365.958 156.32 365.808 156.32 365.64ZM162.549 366.072V358.631H163.593V367.251H162.639L162.549 366.072ZM158.464 364.282V364.164C158.464 363.7 158.52 363.279 158.632 362.901C158.748 362.52 158.911 362.192 159.12 361.919C159.334 361.646 159.586 361.437 159.878 361.291C160.174 361.141 160.503 361.066 160.866 361.066C161.247 361.066 161.58 361.134 161.865 361.268C162.153 361.399 162.396 361.592 162.594 361.846C162.796 362.097 162.955 362.4 163.071 362.755C163.187 363.111 163.268 363.513 163.313 363.962V364.478C163.271 364.924 163.191 365.324 163.071 365.679C162.955 366.035 162.796 366.338 162.594 366.588C162.396 366.839 162.153 367.032 161.865 367.166C161.577 367.297 161.24 367.363 160.855 367.363C160.499 367.363 160.174 367.286 159.878 367.133C159.586 366.979 159.334 366.764 159.12 366.487C158.911 366.211 158.748 365.885 158.632 365.511C158.52 365.133 158.464 364.723 158.464 364.282ZM159.508 364.164V364.282C159.508 364.585 159.538 364.869 159.598 365.135C159.661 365.401 159.758 365.634 159.889 365.836C160.02 366.038 160.187 366.197 160.389 366.313C160.591 366.426 160.832 366.482 161.113 366.482C161.457 366.482 161.739 366.409 161.96 366.263C162.185 366.117 162.364 365.924 162.499 365.685C162.634 365.445 162.738 365.185 162.813 364.905V363.552C162.768 363.347 162.703 363.148 162.617 362.957C162.534 362.763 162.426 362.591 162.291 362.441C162.16 362.288 161.998 362.166 161.803 362.076C161.612 361.987 161.386 361.942 161.124 361.942C160.84 361.942 160.595 362.002 160.389 362.121C160.187 362.237 160.02 362.398 159.889 362.604C159.758 362.806 159.661 363.042 159.598 363.311C159.538 363.577 159.508 363.861 159.508 364.164ZM168.79 366.212V363.087C168.79 362.847 168.741 362.639 168.644 362.464C168.55 362.284 168.408 362.146 168.218 362.048C168.027 361.951 167.791 361.902 167.51 361.902C167.249 361.902 167.018 361.947 166.82 362.037C166.626 362.127 166.472 362.245 166.36 362.391C166.251 362.537 166.197 362.694 166.197 362.862H165.159C165.159 362.645 165.215 362.43 165.327 362.217C165.44 362.003 165.6 361.811 165.81 361.639C166.023 361.463 166.278 361.324 166.573 361.223C166.872 361.119 167.205 361.066 167.572 361.066C168.014 361.066 168.403 361.141 168.739 361.291C169.08 361.44 169.346 361.667 169.536 361.97C169.731 362.269 169.828 362.645 169.828 363.098V365.926C169.828 366.128 169.845 366.343 169.879 366.572C169.916 366.8 169.97 366.996 170.041 367.161V367.251H168.958C168.906 367.131 168.865 366.972 168.835 366.774C168.805 366.572 168.79 366.384 168.79 366.212ZM168.97 363.569L168.981 364.299H167.931C167.636 364.299 167.372 364.323 167.14 364.372C166.908 364.417 166.713 364.486 166.556 364.579C166.399 364.673 166.28 364.791 166.197 364.933C166.115 365.071 166.074 365.234 166.074 365.421C166.074 365.612 166.117 365.786 166.203 365.943C166.289 366.1 166.418 366.225 166.59 366.319C166.766 366.409 166.981 366.454 167.235 366.454C167.553 366.454 167.834 366.386 168.077 366.252C168.32 366.117 168.513 365.952 168.655 365.758C168.801 365.563 168.88 365.374 168.891 365.191L169.334 365.69C169.308 365.848 169.237 366.022 169.121 366.212C169.005 366.403 168.85 366.587 168.655 366.762C168.464 366.934 168.236 367.079 167.971 367.194C167.709 367.307 167.413 367.363 167.084 367.363C166.672 367.363 166.311 367.282 166.001 367.122C165.694 366.961 165.455 366.746 165.282 366.476C165.114 366.203 165.03 365.898 165.03 365.561C165.03 365.236 165.094 364.95 165.221 364.703C165.348 364.452 165.531 364.244 165.771 364.08C166.01 363.911 166.298 363.784 166.635 363.698C166.972 363.612 167.348 363.569 167.763 363.569H168.97ZM173.077 366.622L174.767 361.178H175.878L173.442 368.188C173.386 368.337 173.311 368.498 173.218 368.67C173.128 368.846 173.012 369.013 172.87 369.17C172.728 369.327 172.556 369.454 172.354 369.552C172.155 369.653 171.918 369.703 171.641 369.703C171.558 369.703 171.454 369.692 171.327 369.669C171.199 369.647 171.11 369.628 171.057 369.613L171.052 368.771C171.081 368.775 171.128 368.779 171.192 368.783C171.259 368.79 171.306 368.794 171.332 368.794C171.568 368.794 171.768 368.762 171.933 368.698C172.097 368.639 172.236 368.536 172.348 368.39C172.464 368.248 172.563 368.051 172.645 367.801L173.077 366.622ZM171.837 361.178L173.414 365.893L173.684 366.987L172.937 367.368L170.704 361.178H171.837Z" fill="#11150E"/>
<path d="M252.099 364.781L253.721 359.08H254.507L254.052 361.296L252.307 367.251H251.527L252.099 364.781ZM250.421 359.08L251.712 364.669L252.099 367.251H251.325L249.344 359.08H250.421ZM256.606 364.663L257.868 359.08H258.952L256.976 367.251H256.202L256.606 364.663ZM254.625 359.08L256.202 364.781L256.774 367.251H255.994L254.31 361.296L253.85 359.08H254.625ZM262.336 367.363C261.913 367.363 261.529 367.292 261.185 367.15C260.845 367.004 260.551 366.8 260.304 366.538C260.061 366.276 259.874 365.965 259.743 365.606C259.612 365.247 259.546 364.854 259.546 364.428V364.192C259.546 363.698 259.619 363.259 259.765 362.873C259.911 362.484 260.11 362.155 260.36 361.886C260.611 361.616 260.895 361.412 261.213 361.274C261.531 361.135 261.86 361.066 262.201 361.066C262.635 361.066 263.009 361.141 263.323 361.291C263.641 361.44 263.901 361.65 264.103 361.919C264.305 362.185 264.455 362.499 264.552 362.862C264.65 363.221 264.698 363.614 264.698 364.041V364.506H260.164V363.659H263.66V363.58C263.645 363.311 263.589 363.049 263.492 362.795C263.398 362.54 263.248 362.331 263.043 362.166C262.837 362.002 262.556 361.919 262.201 361.919C261.965 361.919 261.748 361.97 261.55 362.071C261.352 362.168 261.181 362.314 261.039 362.508C260.897 362.703 260.787 362.941 260.708 363.221C260.63 363.502 260.59 363.825 260.59 364.192V364.428C260.59 364.716 260.63 364.987 260.708 365.242C260.79 365.492 260.908 365.713 261.062 365.904C261.219 366.095 261.408 366.244 261.628 366.353C261.853 366.461 262.107 366.515 262.392 366.515C262.758 366.515 263.069 366.441 263.323 366.291C263.578 366.141 263.8 365.941 263.991 365.69L264.62 366.19C264.489 366.388 264.322 366.577 264.12 366.757C263.918 366.936 263.669 367.082 263.374 367.194C263.082 367.307 262.736 367.363 262.336 367.363ZM269.738 366.072V358.631H270.782V367.251H269.828L269.738 366.072ZM265.652 364.282V364.164C265.652 363.7 265.708 363.279 265.821 362.901C265.937 362.52 266.099 362.192 266.309 361.919C266.522 361.646 266.775 361.437 267.066 361.291C267.362 361.141 267.691 361.066 268.054 361.066C268.436 361.066 268.769 361.134 269.053 361.268C269.341 361.399 269.584 361.592 269.783 361.846C269.985 362.097 270.144 362.4 270.26 362.755C270.376 363.111 270.456 363.513 270.501 363.962V364.478C270.46 364.924 270.379 365.324 270.26 365.679C270.144 366.035 269.985 366.338 269.783 366.588C269.584 366.839 269.341 367.032 269.053 367.166C268.765 367.297 268.428 367.363 268.043 367.363C267.688 367.363 267.362 367.286 267.066 367.133C266.775 366.979 266.522 366.764 266.309 366.487C266.099 366.211 265.937 365.885 265.821 365.511C265.708 365.133 265.652 364.723 265.652 364.282ZM266.696 364.164V364.282C266.696 364.585 266.726 364.869 266.786 365.135C266.849 365.401 266.947 365.634 267.078 365.836C267.209 366.038 267.375 366.197 267.577 366.313C267.779 366.426 268.021 366.482 268.301 366.482C268.645 366.482 268.928 366.409 269.149 366.263C269.373 366.117 269.553 365.924 269.687 365.685C269.822 365.445 269.927 365.185 270.002 364.905V363.552C269.957 363.347 269.891 363.148 269.805 362.957C269.723 362.763 269.614 362.591 269.48 362.441C269.349 362.288 269.186 362.166 268.991 362.076C268.801 361.987 268.574 361.942 268.312 361.942C268.028 361.942 267.783 362.002 267.577 362.121C267.375 362.237 267.209 362.398 267.078 362.604C266.947 362.806 266.849 363.042 266.786 363.311C266.726 363.577 266.696 363.861 266.696 364.164ZM273.436 362.475V367.251H272.398V361.178H273.38L273.436 362.475ZM273.189 363.984L272.757 363.968C272.761 363.552 272.823 363.169 272.942 362.817C273.062 362.462 273.23 362.153 273.447 361.891C273.664 361.629 273.922 361.427 274.222 361.285C274.525 361.139 274.86 361.066 275.226 361.066C275.526 361.066 275.795 361.107 276.034 361.19C276.274 361.268 276.478 361.395 276.646 361.571C276.818 361.747 276.949 361.975 277.039 362.256C277.129 362.533 277.174 362.871 277.174 363.272V367.251H276.13V363.26C276.13 362.942 276.083 362.688 275.99 362.497C275.896 362.303 275.759 362.162 275.58 362.076C275.4 361.987 275.18 361.942 274.918 361.942C274.659 361.942 274.424 361.996 274.211 362.104C274.001 362.213 273.82 362.363 273.666 362.553C273.517 362.744 273.399 362.963 273.313 363.21C273.23 363.453 273.189 363.711 273.189 363.984ZM281.27 367.363C280.848 367.363 280.464 367.292 280.12 367.15C279.779 367.004 279.486 366.8 279.239 366.538C278.996 366.276 278.809 365.965 278.678 365.606C278.547 365.247 278.481 364.854 278.481 364.428V364.192C278.481 363.698 278.554 363.259 278.7 362.873C278.846 362.484 279.044 362.155 279.295 361.886C279.546 361.616 279.83 361.412 280.148 361.274C280.466 361.135 280.795 361.066 281.136 361.066C281.57 361.066 281.944 361.141 282.258 361.291C282.576 361.44 282.836 361.65 283.038 361.919C283.24 362.185 283.39 362.499 283.487 362.862C283.584 363.221 283.633 363.614 283.633 364.041V364.506H279.099V363.659H282.595V363.58C282.58 363.311 282.524 363.049 282.426 362.795C282.333 362.54 282.183 362.331 281.978 362.166C281.772 362.002 281.491 361.919 281.136 361.919C280.9 361.919 280.683 361.97 280.485 362.071C280.286 362.168 280.116 362.314 279.974 362.508C279.832 362.703 279.721 362.941 279.643 363.221C279.564 363.502 279.525 363.825 279.525 364.192V364.428C279.525 364.716 279.564 364.987 279.643 365.242C279.725 365.492 279.843 365.713 279.996 365.904C280.154 366.095 280.343 366.244 280.563 366.353C280.788 366.461 281.042 366.515 281.327 366.515C281.693 366.515 282.004 366.441 282.258 366.291C282.513 366.141 282.735 365.941 282.926 365.69L283.554 366.19C283.424 366.388 283.257 366.577 283.055 366.757C282.853 366.936 282.604 367.082 282.309 367.194C282.017 367.307 281.671 367.363 281.27 367.363ZM288.381 365.64C288.381 365.49 288.347 365.352 288.28 365.225C288.216 365.094 288.083 364.976 287.881 364.871C287.683 364.763 287.384 364.669 286.983 364.591C286.647 364.519 286.342 364.435 286.069 364.338C285.799 364.241 285.569 364.123 285.378 363.984C285.191 363.846 285.047 363.683 284.946 363.496C284.845 363.309 284.795 363.09 284.795 362.84C284.795 362.6 284.847 362.374 284.952 362.161C285.06 361.947 285.212 361.758 285.406 361.594C285.605 361.429 285.842 361.3 286.119 361.207C286.396 361.113 286.705 361.066 287.045 361.066C287.531 361.066 287.947 361.152 288.291 361.324C288.635 361.496 288.899 361.727 289.082 362.015C289.266 362.299 289.357 362.615 289.357 362.963H288.319C288.319 362.795 288.269 362.632 288.168 362.475C288.07 362.314 287.926 362.181 287.735 362.076C287.548 361.972 287.318 361.919 287.045 361.919C286.757 361.919 286.523 361.964 286.344 362.054C286.168 362.14 286.039 362.25 285.956 362.385C285.878 362.52 285.839 362.662 285.839 362.812C285.839 362.924 285.857 363.025 285.895 363.115C285.936 363.201 286.007 363.281 286.108 363.356C286.209 363.427 286.351 363.494 286.534 363.558C286.718 363.622 286.952 363.685 287.236 363.749C287.734 363.861 288.143 363.996 288.465 364.153C288.787 364.31 289.026 364.503 289.183 364.731C289.34 364.959 289.419 365.236 289.419 365.561C289.419 365.827 289.363 366.07 289.251 366.291C289.142 366.512 288.983 366.703 288.774 366.863C288.568 367.021 288.321 367.144 288.033 367.234C287.748 367.32 287.429 367.363 287.073 367.363C286.538 367.363 286.085 367.267 285.715 367.077C285.345 366.886 285.064 366.639 284.873 366.336C284.682 366.033 284.587 365.713 284.587 365.376H285.631C285.646 365.661 285.728 365.887 285.878 366.055C286.027 366.22 286.211 366.338 286.428 366.409C286.645 366.476 286.86 366.51 287.073 366.51C287.358 366.51 287.595 366.472 287.786 366.398C287.98 366.323 288.128 366.22 288.229 366.089C288.33 365.958 288.381 365.808 288.381 365.64ZM294.61 366.072V358.631H295.654V367.251H294.7L294.61 366.072ZM290.525 364.282V364.164C290.525 363.7 290.581 363.279 290.693 362.901C290.809 362.52 290.972 362.192 291.181 361.919C291.394 361.646 291.647 361.437 291.939 361.291C292.234 361.141 292.564 361.066 292.926 361.066C293.308 361.066 293.641 361.134 293.925 361.268C294.213 361.399 294.457 361.592 294.655 361.846C294.857 362.097 295.016 362.4 295.132 362.755C295.248 363.111 295.328 363.513 295.373 363.962V364.478C295.332 364.924 295.252 365.324 295.132 365.679C295.016 366.035 294.857 366.338 294.655 366.588C294.457 366.839 294.213 367.032 293.925 367.166C293.637 367.297 293.301 367.363 292.915 367.363C292.56 367.363 292.234 367.286 291.939 367.133C291.647 366.979 291.394 366.764 291.181 366.487C290.972 366.211 290.809 365.885 290.693 365.511C290.581 365.133 290.525 364.723 290.525 364.282ZM291.568 364.164V364.282C291.568 364.585 291.598 364.869 291.658 365.135C291.722 365.401 291.819 365.634 291.95 365.836C292.081 366.038 292.247 366.197 292.449 366.313C292.651 366.426 292.893 366.482 293.173 366.482C293.518 366.482 293.8 366.409 294.021 366.263C294.245 366.117 294.425 365.924 294.56 365.685C294.694 365.445 294.799 365.185 294.874 364.905V363.552C294.829 363.347 294.763 363.148 294.677 362.957C294.595 362.763 294.487 362.591 294.352 362.441C294.221 362.288 294.058 362.166 293.864 362.076C293.673 361.987 293.447 361.942 293.185 361.942C292.9 361.942 292.655 362.002 292.449 362.121C292.247 362.237 292.081 362.398 291.95 362.604C291.819 362.806 291.722 363.042 291.658 363.311C291.598 363.577 291.568 363.861 291.568 364.164ZM300.851 366.212V363.087C300.851 362.847 300.802 362.639 300.705 362.464C300.611 362.284 300.469 362.146 300.278 362.048C300.087 361.951 299.852 361.902 299.571 361.902C299.309 361.902 299.079 361.947 298.881 362.037C298.686 362.127 298.533 362.245 298.421 362.391C298.312 362.537 298.258 362.694 298.258 362.862H297.22C297.22 362.645 297.276 362.43 297.388 362.217C297.5 362.003 297.661 361.811 297.871 361.639C298.084 361.463 298.338 361.324 298.634 361.223C298.933 361.119 299.266 361.066 299.633 361.066C300.074 361.066 300.463 361.141 300.8 361.291C301.141 361.44 301.406 361.667 301.597 361.97C301.792 362.269 301.889 362.645 301.889 363.098V365.926C301.889 366.128 301.906 366.343 301.939 366.572C301.977 366.8 302.031 366.996 302.102 367.161V367.251H301.019C300.967 367.131 300.925 366.972 300.895 366.774C300.866 366.572 300.851 366.384 300.851 366.212ZM301.03 363.569L301.041 364.299H299.992C299.696 364.299 299.433 364.323 299.201 364.372C298.969 364.417 298.774 364.486 298.617 364.579C298.46 364.673 298.34 364.791 298.258 364.933C298.176 365.071 298.134 365.234 298.134 365.421C298.134 365.612 298.177 365.786 298.263 365.943C298.349 366.1 298.479 366.225 298.651 366.319C298.827 366.409 299.042 366.454 299.296 366.454C299.614 366.454 299.895 366.386 300.138 366.252C300.381 366.117 300.574 365.952 300.716 365.758C300.862 365.563 300.94 365.374 300.952 365.191L301.395 365.69C301.369 365.848 301.298 366.022 301.182 366.212C301.066 366.403 300.91 366.587 300.716 366.762C300.525 366.934 300.297 367.079 300.031 367.194C299.769 367.307 299.474 367.363 299.145 367.363C298.733 367.363 298.372 367.282 298.061 367.122C297.755 366.961 297.515 366.746 297.343 366.476C297.175 366.203 297.091 365.898 297.091 365.561C297.091 365.236 297.154 364.95 297.281 364.703C297.409 364.452 297.592 364.244 297.831 364.08C298.071 363.911 298.359 363.784 298.696 363.698C299.032 363.612 299.408 363.569 299.824 363.569H301.03ZM305.138 366.622L306.827 361.178H307.938L305.503 368.188C305.447 368.337 305.372 368.498 305.278 368.67C305.189 368.846 305.073 369.013 304.93 369.17C304.788 369.327 304.616 369.454 304.414 369.552C304.216 369.653 303.978 369.703 303.701 369.703C303.619 369.703 303.514 369.692 303.387 369.669C303.26 369.647 303.17 369.628 303.118 369.613L303.112 368.771C303.142 368.775 303.189 368.779 303.252 368.783C303.32 368.79 303.367 368.794 303.393 368.794C303.628 368.794 303.829 368.762 303.993 368.698C304.158 368.639 304.296 368.536 304.409 368.39C304.525 368.248 304.624 368.051 304.706 367.801L305.138 366.622ZM303.898 361.178L305.475 365.893L305.744 366.987L304.998 367.368L302.764 361.178H303.898Z" fill="#11150E"/>
<path d="M383.52 359.08V367.251H382.453V359.08H383.52ZM386.146 359.08V359.966H379.833V359.08H386.146ZM388.239 358.631V367.251H387.201V358.631H388.239ZM387.992 363.984L387.56 363.968C387.564 363.552 387.626 363.169 387.746 362.817C387.865 362.462 388.034 362.153 388.251 361.891C388.468 361.629 388.726 361.427 389.025 361.285C389.328 361.139 389.663 361.066 390.03 361.066C390.329 361.066 390.598 361.107 390.838 361.19C391.077 361.268 391.281 361.395 391.449 361.571C391.622 361.747 391.752 361.975 391.842 362.256C391.932 362.533 391.977 362.871 391.977 363.272V367.251H390.933V363.26C390.933 362.942 390.886 362.688 390.793 362.497C390.699 362.303 390.563 362.162 390.383 362.076C390.204 361.987 389.983 361.942 389.721 361.942C389.463 361.942 389.227 361.996 389.014 362.104C388.804 362.213 388.623 362.363 388.469 362.553C388.32 362.744 388.202 362.963 388.116 363.21C388.034 363.453 387.992 363.711 387.992 363.984ZM397.247 365.848V361.178H398.29V367.251H397.297L397.247 365.848ZM397.443 364.568L397.875 364.557C397.875 364.961 397.832 365.335 397.746 365.679C397.664 366.02 397.529 366.315 397.342 366.566C397.155 366.817 396.91 367.013 396.607 367.155C396.304 367.294 395.935 367.363 395.501 367.363C395.206 367.363 394.934 367.32 394.688 367.234C394.444 367.148 394.235 367.015 394.059 366.835C393.883 366.656 393.747 366.422 393.649 366.134C393.556 365.846 393.509 365.5 393.509 365.096V361.178H394.547V365.107C394.547 365.38 394.577 365.606 394.637 365.786C394.701 365.962 394.785 366.102 394.89 366.207C394.998 366.308 395.118 366.379 395.249 366.42C395.383 366.461 395.522 366.482 395.664 366.482C396.105 366.482 396.455 366.398 396.713 366.229C396.972 366.057 397.157 365.827 397.269 365.539C397.385 365.247 397.443 364.924 397.443 364.568ZM400.911 362.132V367.251H399.873V361.178H400.883L400.911 362.132ZM402.808 361.145L402.802 362.11C402.716 362.091 402.634 362.08 402.556 362.076C402.481 362.069 402.395 362.065 402.297 362.065C402.058 362.065 401.847 362.103 401.663 362.177C401.48 362.252 401.325 362.357 401.197 362.492C401.07 362.626 400.969 362.787 400.894 362.974C400.823 363.158 400.777 363.36 400.754 363.58L400.462 363.749C400.462 363.382 400.498 363.038 400.569 362.716C400.644 362.394 400.758 362.11 400.911 361.863C401.065 361.612 401.259 361.418 401.495 361.279C401.734 361.137 402.019 361.066 402.348 361.066C402.423 361.066 402.509 361.076 402.606 361.094C402.703 361.109 402.771 361.126 402.808 361.145ZM407.303 365.64C407.303 365.49 407.27 365.352 407.202 365.225C407.139 365.094 407.006 364.976 406.804 364.871C406.605 364.763 406.306 364.669 405.906 364.591C405.569 364.519 405.264 364.435 404.991 364.338C404.722 364.241 404.492 364.123 404.301 363.984C404.114 363.846 403.97 363.683 403.869 363.496C403.768 363.309 403.717 363.09 403.717 362.84C403.717 362.6 403.77 362.374 403.874 362.161C403.983 361.947 404.134 361.758 404.329 361.594C404.527 361.429 404.765 361.3 405.042 361.207C405.318 361.113 405.627 361.066 405.968 361.066C406.454 361.066 406.869 361.152 407.213 361.324C407.558 361.496 407.821 361.727 408.005 362.015C408.188 362.299 408.28 362.615 408.28 362.963H407.242C407.242 362.795 407.191 362.632 407.09 362.475C406.993 362.314 406.849 362.181 406.658 362.076C406.471 361.972 406.241 361.919 405.968 361.919C405.68 361.919 405.446 361.964 405.266 362.054C405.09 362.14 404.961 362.25 404.879 362.385C404.8 362.52 404.761 362.662 404.761 362.812C404.761 362.924 404.78 363.025 404.817 363.115C404.858 363.201 404.929 363.281 405.03 363.356C405.131 363.427 405.274 363.494 405.457 363.558C405.64 363.622 405.874 363.685 406.158 363.749C406.656 363.861 407.066 363.996 407.387 364.153C407.709 364.31 407.949 364.503 408.106 364.731C408.263 364.959 408.341 365.236 408.341 365.561C408.341 365.827 408.285 366.07 408.173 366.291C408.065 366.512 407.906 366.703 407.696 366.863C407.49 367.021 407.243 367.144 406.955 367.234C406.671 367.32 406.351 367.363 405.996 367.363C405.461 367.363 405.008 367.267 404.638 367.077C404.267 366.886 403.987 366.639 403.796 366.336C403.605 366.033 403.51 365.713 403.51 365.376H404.553C404.568 365.661 404.651 365.887 404.8 366.055C404.95 366.22 405.133 366.338 405.35 366.409C405.567 366.476 405.782 366.51 405.996 366.51C406.28 366.51 406.518 366.472 406.708 366.398C406.903 366.323 407.051 366.22 407.152 366.089C407.253 365.958 407.303 365.808 407.303 365.64ZM413.533 366.072V358.631H414.576V367.251H413.622L413.533 366.072ZM409.447 364.282V364.164C409.447 363.7 409.503 363.279 409.615 362.901C409.731 362.52 409.894 362.192 410.104 361.919C410.317 361.646 410.569 361.437 410.861 361.291C411.157 361.141 411.486 361.066 411.849 361.066C412.231 361.066 412.564 361.134 412.848 361.268C413.136 361.399 413.379 361.592 413.577 361.846C413.779 362.097 413.938 362.4 414.054 362.755C414.17 363.111 414.251 363.513 414.296 363.962V364.478C414.255 364.924 414.174 365.324 414.054 365.679C413.938 366.035 413.779 366.338 413.577 366.588C413.379 366.839 413.136 367.032 412.848 367.166C412.56 367.297 412.223 367.363 411.838 367.363C411.482 367.363 411.157 367.286 410.861 367.133C410.569 366.979 410.317 366.764 410.104 366.487C409.894 366.211 409.731 365.885 409.615 365.511C409.503 365.133 409.447 364.723 409.447 364.282ZM410.491 364.164V364.282C410.491 364.585 410.521 364.869 410.581 365.135C410.644 365.401 410.741 365.634 410.872 365.836C411.003 366.038 411.17 366.197 411.372 366.313C411.574 366.426 411.815 366.482 412.096 366.482C412.44 366.482 412.723 366.409 412.943 366.263C413.168 366.117 413.347 365.924 413.482 365.685C413.617 365.445 413.721 365.185 413.796 364.905V363.552C413.751 363.347 413.686 363.148 413.6 362.957C413.518 362.763 413.409 362.591 413.274 362.441C413.143 362.288 412.981 362.166 412.786 362.076C412.595 361.987 412.369 361.942 412.107 361.942C411.823 361.942 411.578 362.002 411.372 362.121C411.17 362.237 411.003 362.398 410.872 362.604C410.741 362.806 410.644 363.042 410.581 363.311C410.521 363.577 410.491 363.861 410.491 364.164ZM419.773 366.212V363.087C419.773 362.847 419.724 362.639 419.627 362.464C419.534 362.284 419.391 362.146 419.201 362.048C419.01 361.951 418.774 361.902 418.494 361.902C418.232 361.902 418.002 361.947 417.803 362.037C417.609 362.127 417.455 362.245 417.343 362.391C417.235 362.537 417.18 362.694 417.18 362.862H416.142C416.142 362.645 416.198 362.43 416.31 362.217C416.423 362.003 416.584 361.811 416.793 361.639C417.006 361.463 417.261 361.324 417.556 361.223C417.856 361.119 418.189 361.066 418.555 361.066C418.997 361.066 419.386 361.141 419.723 361.291C420.063 361.44 420.329 361.667 420.519 361.97C420.714 362.269 420.811 362.645 420.811 363.098V365.926C420.811 366.128 420.828 366.343 420.862 366.572C420.899 366.8 420.953 366.996 421.025 367.161V367.251H419.941C419.889 367.131 419.848 366.972 419.818 366.774C419.788 366.572 419.773 366.384 419.773 366.212ZM419.953 363.569L419.964 364.299H418.914C418.619 364.299 418.355 364.323 418.123 364.372C417.891 364.417 417.697 364.486 417.539 364.579C417.382 364.673 417.263 364.791 417.18 364.933C417.098 365.071 417.057 365.234 417.057 365.421C417.057 365.612 417.1 365.786 417.186 365.943C417.272 366.1 417.401 366.225 417.573 366.319C417.749 366.409 417.964 366.454 418.219 366.454C418.537 366.454 418.817 366.386 419.06 366.252C419.303 366.117 419.496 365.952 419.638 365.758C419.784 365.563 419.863 365.374 419.874 365.191L420.317 365.69C420.291 365.848 420.22 366.022 420.104 366.212C419.988 366.403 419.833 366.587 419.638 366.762C419.448 366.934 419.219 367.079 418.954 367.194C418.692 367.307 418.396 367.363 418.067 367.363C417.655 367.363 417.294 367.282 416.984 367.122C416.677 366.961 416.438 366.746 416.266 366.476C416.097 366.203 416.013 365.898 416.013 365.561C416.013 365.236 416.077 364.95 416.204 364.703C416.331 364.452 416.514 364.244 416.754 364.08C416.993 363.911 417.281 363.784 417.618 363.698C417.955 363.612 418.331 363.569 418.746 363.569H419.953ZM424.061 366.622L425.75 361.178H426.861L424.425 368.188C424.369 368.337 424.294 368.498 424.201 368.67C424.111 368.846 423.995 369.013 423.853 369.17C423.711 369.327 423.539 369.454 423.337 369.552C423.138 369.653 422.901 369.703 422.624 369.703C422.542 369.703 422.437 369.692 422.31 369.669C422.182 369.647 422.093 369.628 422.04 369.613L422.035 368.771C422.065 368.775 422.111 368.779 422.175 368.783C422.242 368.79 422.289 368.794 422.315 368.794C422.551 368.794 422.751 368.762 422.916 368.698C423.08 368.639 423.219 368.536 423.331 368.39C423.447 368.248 423.546 368.051 423.628 367.801L424.061 366.622ZM422.82 361.178L424.397 365.893L424.667 366.987L423.92 367.368L421.687 361.178H422.82Z" fill="#11150E"/>
<path d="M513.968 359.08V367.251H512.885V359.08H513.968ZM517.392 362.755V363.642H513.733V362.755H517.392ZM517.947 359.08V359.966H513.733V359.08H517.947ZM519.973 362.132V367.251H518.935V361.178H519.945L519.973 362.132ZM521.87 361.145L521.864 362.11C521.778 362.091 521.696 362.08 521.617 362.076C521.543 362.069 521.457 362.065 521.359 362.065C521.12 362.065 520.908 362.103 520.725 362.177C520.542 362.252 520.387 362.357 520.259 362.492C520.132 362.626 520.031 362.787 519.956 362.974C519.885 363.158 519.838 363.36 519.816 363.58L519.524 363.749C519.524 363.382 519.56 363.038 519.631 362.716C519.706 362.394 519.82 362.11 519.973 361.863C520.127 361.612 520.321 361.418 520.557 361.279C520.796 361.137 521.081 361.066 521.41 361.066C521.485 361.066 521.571 361.076 521.668 361.094C521.765 361.109 521.833 361.126 521.87 361.145ZM523.958 361.178V367.251H522.914V361.178H523.958ZM522.835 359.568C522.835 359.399 522.886 359.257 522.987 359.141C523.092 359.025 523.245 358.967 523.447 358.967C523.645 358.967 523.797 359.025 523.902 359.141C524.01 359.257 524.064 359.399 524.064 359.568C524.064 359.729 524.01 359.867 523.902 359.983C523.797 360.095 523.645 360.151 523.447 360.151C523.245 360.151 523.092 360.095 522.987 359.983C522.886 359.867 522.835 359.729 522.835 359.568ZM529.452 366.072V358.631H530.496V367.251H529.542L529.452 366.072ZM525.366 364.282V364.164C525.366 363.7 525.422 363.279 525.535 362.901C525.651 362.52 525.813 362.192 526.023 361.919C526.236 361.646 526.489 361.437 526.78 361.291C527.076 361.141 527.405 361.066 527.768 361.066C528.15 361.066 528.483 361.134 528.767 361.268C529.055 361.399 529.298 361.592 529.497 361.846C529.699 362.097 529.858 362.4 529.974 362.755C530.09 363.111 530.17 363.513 530.215 363.962V364.478C530.174 364.924 530.093 365.324 529.974 365.679C529.858 366.035 529.699 366.338 529.497 366.588C529.298 366.839 529.055 367.032 528.767 367.166C528.479 367.297 528.142 367.363 527.757 367.363C527.402 367.363 527.076 367.286 526.78 367.133C526.489 366.979 526.236 366.764 526.023 366.487C525.813 366.211 525.651 365.885 525.535 365.511C525.422 365.133 525.366 364.723 525.366 364.282ZM526.41 364.164V364.282C526.41 364.585 526.44 364.869 526.5 365.135C526.563 365.401 526.661 365.634 526.792 365.836C526.923 366.038 527.089 366.197 527.291 366.313C527.493 366.426 527.735 366.482 528.015 366.482C528.359 366.482 528.642 366.409 528.863 366.263C529.087 366.117 529.267 365.924 529.401 365.685C529.536 365.445 529.641 365.185 529.716 364.905V363.552C529.671 363.347 529.605 363.148 529.519 362.957C529.437 362.763 529.328 362.591 529.194 362.441C529.063 362.288 528.9 362.166 528.705 362.076C528.515 361.987 528.288 361.942 528.026 361.942C527.742 361.942 527.497 362.002 527.291 362.121C527.089 362.237 526.923 362.398 526.792 362.604C526.661 362.806 526.563 363.042 526.5 363.311C526.44 363.577 526.41 363.861 526.41 364.164ZM535.692 366.212V363.087C535.692 362.847 535.644 362.639 535.546 362.464C535.453 362.284 535.311 362.146 535.12 362.048C534.929 361.951 534.693 361.902 534.413 361.902C534.151 361.902 533.921 361.947 533.722 362.037C533.528 362.127 533.375 362.245 533.262 362.391C533.154 362.537 533.1 362.694 533.1 362.862H532.061C532.061 362.645 532.117 362.43 532.23 362.217C532.342 362.003 532.503 361.811 532.712 361.639C532.926 361.463 533.18 361.324 533.476 361.223C533.775 361.119 534.108 361.066 534.474 361.066C534.916 361.066 535.305 361.141 535.642 361.291C535.982 361.44 536.248 361.667 536.439 361.97C536.633 362.269 536.73 362.645 536.73 363.098V365.926C536.73 366.128 536.747 366.343 536.781 366.572C536.818 366.8 536.873 366.996 536.944 367.161V367.251H535.861C535.808 367.131 535.767 366.972 535.737 366.774C535.707 366.572 535.692 366.384 535.692 366.212ZM535.872 363.569L535.883 364.299H534.834C534.538 364.299 534.274 364.323 534.042 364.372C533.81 364.417 533.616 364.486 533.459 364.579C533.302 364.673 533.182 364.791 533.1 364.933C533.017 365.071 532.976 365.234 532.976 365.421C532.976 365.612 533.019 365.786 533.105 365.943C533.191 366.1 533.32 366.225 533.492 366.319C533.668 366.409 533.883 366.454 534.138 366.454C534.456 366.454 534.736 366.386 534.98 366.252C535.223 366.117 535.415 365.952 535.558 365.758C535.704 365.563 535.782 365.374 535.793 365.191L536.237 365.69C536.21 365.848 536.139 366.022 536.023 366.212C535.907 366.403 535.752 366.587 535.558 366.762C535.367 366.934 535.139 367.079 534.873 367.194C534.611 367.307 534.315 367.363 533.986 367.363C533.575 367.363 533.214 367.282 532.903 367.122C532.596 366.961 532.357 366.746 532.185 366.476C532.016 366.203 531.932 365.898 531.932 365.561C531.932 365.236 531.996 364.95 532.123 364.703C532.25 364.452 532.434 364.244 532.673 364.08C532.912 363.911 533.201 363.784 533.537 363.698C533.874 363.612 534.25 363.569 534.665 363.569H535.872ZM539.98 366.622L541.669 361.178H542.78L540.345 368.188C540.288 368.337 540.214 368.498 540.12 368.67C540.03 368.846 539.914 369.013 539.772 369.17C539.63 369.327 539.458 369.454 539.256 369.552C539.058 369.653 538.82 369.703 538.543 369.703C538.461 369.703 538.356 369.692 538.229 369.669C538.102 369.647 538.012 369.628 537.96 369.613L537.954 368.771C537.984 368.775 538.031 368.779 538.094 368.783C538.162 368.79 538.208 368.794 538.235 368.794C538.47 368.794 538.67 368.762 538.835 368.698C539 368.639 539.138 368.536 539.25 368.39C539.366 368.248 539.465 368.051 539.548 367.801L539.98 366.622ZM538.74 361.178L540.317 365.893L540.586 366.987L539.84 367.368L537.606 361.178H538.74Z" fill="#11150E"/>
<path d="M634.557 365.185C634.557 364.995 634.527 364.826 634.467 364.68C634.411 364.531 634.31 364.396 634.164 364.276C634.022 364.157 633.824 364.042 633.569 363.934C633.319 363.825 633.001 363.715 632.615 363.603C632.211 363.483 631.846 363.35 631.521 363.204C631.196 363.055 630.917 362.884 630.685 362.694C630.453 362.503 630.275 362.284 630.152 362.037C630.028 361.79 629.966 361.508 629.966 361.19C629.966 360.872 630.032 360.578 630.163 360.309C630.294 360.039 630.481 359.805 630.724 359.607C630.971 359.405 631.265 359.248 631.605 359.136C631.946 359.023 632.325 358.967 632.744 358.967C633.358 358.967 633.878 359.085 634.305 359.321C634.735 359.553 635.062 359.858 635.287 360.236C635.511 360.61 635.623 361.01 635.623 361.437H634.546C634.546 361.13 634.48 360.859 634.349 360.623C634.218 360.383 634.02 360.196 633.755 360.062C633.489 359.923 633.152 359.854 632.744 359.854C632.359 359.854 632.041 359.912 631.79 360.028C631.54 360.144 631.353 360.301 631.229 360.499C631.109 360.698 631.05 360.924 631.05 361.178C631.05 361.351 631.085 361.508 631.156 361.65C631.231 361.788 631.345 361.917 631.499 362.037C631.656 362.157 631.854 362.267 632.093 362.368C632.337 362.469 632.627 362.566 632.963 362.66C633.427 362.791 633.828 362.937 634.164 363.098C634.501 363.259 634.778 363.44 634.995 363.642C635.216 363.84 635.378 364.067 635.483 364.321C635.592 364.572 635.646 364.856 635.646 365.174C635.646 365.507 635.578 365.808 635.444 366.078C635.309 366.347 635.116 366.577 634.866 366.768C634.615 366.959 634.314 367.107 633.962 367.211C633.614 367.312 633.225 367.363 632.795 367.363C632.417 367.363 632.045 367.31 631.678 367.206C631.315 367.101 630.984 366.944 630.685 366.734C630.389 366.525 630.152 366.267 629.972 365.96C629.796 365.649 629.708 365.29 629.708 364.882H630.786C630.786 365.163 630.84 365.404 630.949 365.606C631.057 365.805 631.205 365.969 631.392 366.1C631.583 366.231 631.798 366.328 632.037 366.392C632.28 366.452 632.533 366.482 632.795 366.482C633.173 366.482 633.493 366.429 633.755 366.325C634.016 366.22 634.215 366.07 634.349 365.876C634.488 365.681 634.557 365.451 634.557 365.185ZM640.45 366.212V363.087C640.45 362.847 640.401 362.639 640.304 362.464C640.21 362.284 640.068 362.146 639.877 362.048C639.686 361.951 639.451 361.902 639.17 361.902C638.908 361.902 638.678 361.947 638.48 362.037C638.285 362.127 638.132 362.245 638.02 362.391C637.911 362.537 637.857 362.694 637.857 362.862H636.819C636.819 362.645 636.875 362.43 636.987 362.217C637.099 362.003 637.26 361.811 637.47 361.639C637.683 361.463 637.937 361.324 638.233 361.223C638.532 361.119 638.865 361.066 639.232 361.066C639.673 361.066 640.062 361.141 640.399 361.291C640.74 361.44 641.005 361.667 641.196 361.97C641.391 362.269 641.488 362.645 641.488 363.098V365.926C641.488 366.128 641.505 366.343 641.538 366.572C641.576 366.8 641.63 366.996 641.701 367.161V367.251H640.618C640.566 367.131 640.524 366.972 640.495 366.774C640.465 366.572 640.45 366.384 640.45 366.212ZM640.629 363.569L640.64 364.299H639.591C639.295 364.299 639.032 364.323 638.8 364.372C638.568 364.417 638.373 364.486 638.216 364.579C638.059 364.673 637.939 364.791 637.857 364.933C637.775 365.071 637.733 365.234 637.733 365.421C637.733 365.612 637.776 365.786 637.863 365.943C637.949 366.1 638.078 366.225 638.25 366.319C638.426 366.409 638.641 366.454 638.895 366.454C639.213 366.454 639.494 366.386 639.737 366.252C639.98 366.117 640.173 365.952 640.315 365.758C640.461 365.563 640.539 365.374 640.551 365.191L640.994 365.69C640.968 365.848 640.897 366.022 640.781 366.212C640.665 366.403 640.51 366.587 640.315 366.762C640.124 366.934 639.896 367.079 639.63 367.194C639.368 367.307 639.073 367.363 638.744 367.363C638.332 367.363 637.971 367.282 637.66 367.122C637.354 366.961 637.114 366.746 636.942 366.476C636.774 366.203 636.69 365.898 636.69 365.561C636.69 365.236 636.753 364.95 636.88 364.703C637.008 364.452 637.191 364.244 637.43 364.08C637.67 363.911 637.958 363.784 638.295 363.698C638.631 363.612 639.007 363.569 639.423 363.569H640.629ZM645.663 361.178V361.975H642.38V361.178H645.663ZM643.491 359.703H644.53V365.747C644.53 365.952 644.561 366.108 644.625 366.212C644.689 366.317 644.771 366.386 644.872 366.42C644.973 366.454 645.081 366.471 645.197 366.471C645.283 366.471 645.373 366.463 645.467 366.448C645.564 366.429 645.637 366.414 645.686 366.403L645.691 367.251C645.609 367.277 645.5 367.301 645.366 367.324C645.235 367.35 645.076 367.363 644.889 367.363C644.634 367.363 644.4 367.312 644.187 367.211C643.974 367.11 643.804 366.942 643.677 366.706C643.553 366.467 643.491 366.145 643.491 365.741V359.703ZM650.596 365.848V361.178H651.64V367.251H650.647L650.596 365.848ZM650.793 364.568L651.225 364.557C651.225 364.961 651.182 365.335 651.096 365.679C651.013 366.02 650.879 366.315 650.691 366.566C650.504 366.817 650.259 367.013 649.956 367.155C649.653 367.294 649.285 367.363 648.851 367.363C648.555 367.363 648.284 367.32 648.037 367.234C647.794 367.148 647.584 367.015 647.408 366.835C647.233 366.656 647.096 366.422 646.999 366.134C646.905 365.846 646.859 365.5 646.859 365.096V361.178H647.897V365.107C647.897 365.38 647.927 365.606 647.987 365.786C648.05 365.962 648.134 366.102 648.239 366.207C648.348 366.308 648.467 366.379 648.598 366.42C648.733 366.461 648.871 366.482 649.014 366.482C649.455 366.482 649.805 366.398 650.063 366.229C650.321 366.057 650.506 365.827 650.619 365.539C650.735 365.247 650.793 364.924 650.793 364.568ZM654.261 362.132V367.251H653.222V361.178H654.233L654.261 362.132ZM656.158 361.145L656.152 362.11C656.066 362.091 655.984 362.08 655.905 362.076C655.83 362.069 655.744 362.065 655.647 362.065C655.407 362.065 655.196 362.103 655.013 362.177C654.829 362.252 654.674 362.357 654.547 362.492C654.42 362.626 654.319 362.787 654.244 362.974C654.173 363.158 654.126 363.36 654.104 363.58L653.812 363.749C653.812 363.382 653.847 363.038 653.918 362.716C653.993 362.394 654.107 362.11 654.261 361.863C654.414 361.612 654.609 361.418 654.844 361.279C655.084 361.137 655.368 361.066 655.697 361.066C655.772 361.066 655.858 361.076 655.956 361.094C656.053 361.109 656.12 361.126 656.158 361.145ZM660.832 366.072V358.631H661.876V367.251H660.922L660.832 366.072ZM656.747 364.282V364.164C656.747 363.7 656.803 363.279 656.915 362.901C657.031 362.52 657.194 362.192 657.403 361.919C657.617 361.646 657.869 361.437 658.161 361.291C658.457 361.141 658.786 361.066 659.149 361.066C659.53 361.066 659.863 361.134 660.148 361.268C660.436 361.399 660.679 361.592 660.877 361.846C661.079 362.097 661.238 362.4 661.354 362.755C661.47 363.111 661.551 363.513 661.596 363.962V364.478C661.554 364.924 661.474 365.324 661.354 365.679C661.238 366.035 661.079 366.338 660.877 366.588C660.679 366.839 660.436 367.032 660.148 367.166C659.86 367.297 659.523 367.363 659.138 367.363C658.782 367.363 658.457 367.286 658.161 367.133C657.869 366.979 657.617 366.764 657.403 366.487C657.194 366.211 657.031 365.885 656.915 365.511C656.803 365.133 656.747 364.723 656.747 364.282ZM657.791 364.164V364.282C657.791 364.585 657.821 364.869 657.88 365.135C657.944 365.401 658.041 365.634 658.172 365.836C658.303 366.038 658.47 366.197 658.672 366.313C658.874 366.426 659.115 366.482 659.396 366.482C659.74 366.482 660.022 366.409 660.243 366.263C660.468 366.117 660.647 365.924 660.782 365.685C660.917 365.445 661.021 365.185 661.096 364.905V363.552C661.051 363.347 660.986 363.148 660.9 362.957C660.817 362.763 660.709 362.591 660.574 362.441C660.443 362.288 660.28 362.166 660.086 362.076C659.895 361.987 659.669 361.942 659.407 361.942C659.123 361.942 658.877 362.002 658.672 362.121C658.47 362.237 658.303 362.398 658.172 362.604C658.041 362.806 657.944 363.042 657.88 363.311C657.821 363.577 657.791 363.861 657.791 364.164ZM667.073 366.212V363.087C667.073 362.847 667.024 362.639 666.927 362.464C666.833 362.284 666.691 362.146 666.5 362.048C666.31 361.951 666.074 361.902 665.793 361.902C665.531 361.902 665.301 361.947 665.103 362.037C664.908 362.127 664.755 362.245 664.643 362.391C664.534 362.537 664.48 362.694 664.48 362.862H663.442C663.442 362.645 663.498 362.43 663.61 362.217C663.722 362.003 663.883 361.811 664.093 361.639C664.306 361.463 664.561 361.324 664.856 361.223C665.155 361.119 665.488 361.066 665.855 361.066C666.297 361.066 666.686 361.141 667.022 361.291C667.363 361.44 667.628 361.667 667.819 361.97C668.014 362.269 668.111 362.645 668.111 363.098V365.926C668.111 366.128 668.128 366.343 668.162 366.572C668.199 366.8 668.253 366.996 668.324 367.161V367.251H667.241C667.189 367.131 667.148 366.972 667.118 366.774C667.088 366.572 667.073 366.384 667.073 366.212ZM667.252 363.569L667.264 364.299H666.214C665.919 364.299 665.655 364.323 665.423 364.372C665.191 364.417 664.996 364.486 664.839 364.579C664.682 364.673 664.562 364.791 664.48 364.933C664.398 365.071 664.357 365.234 664.357 365.421C664.357 365.612 664.4 365.786 664.486 365.943C664.572 366.1 664.701 366.225 664.873 366.319C665.049 366.409 665.264 366.454 665.518 366.454C665.836 366.454 666.117 366.386 666.36 366.252C666.603 366.117 666.796 365.952 666.938 365.758C667.084 365.563 667.163 365.374 667.174 365.191L667.617 365.69C667.591 365.848 667.52 366.022 667.404 366.212C667.288 366.403 667.133 366.587 666.938 366.762C666.747 366.934 666.519 367.079 666.253 367.194C665.992 367.307 665.696 367.363 665.367 367.363C664.955 367.363 664.594 367.282 664.284 367.122C663.977 366.961 663.737 366.746 663.565 366.476C663.397 366.203 663.313 365.898 663.313 365.561C663.313 365.236 663.376 364.95 663.504 364.703C663.631 364.452 663.814 364.244 664.054 364.08C664.293 363.911 664.581 363.784 664.918 363.698C665.255 363.612 665.631 363.569 666.046 363.569H667.252ZM671.36 366.622L673.05 361.178H674.161L671.725 368.188C671.669 368.337 671.594 368.498 671.501 368.67C671.411 368.846 671.295 369.013 671.153 369.17C671.011 369.327 670.838 369.454 670.636 369.552C670.438 369.653 670.201 369.703 669.924 369.703C669.841 369.703 669.737 369.692 669.609 369.669C669.482 369.647 669.392 369.628 669.34 369.613L669.334 368.771C669.364 368.775 669.411 368.779 669.475 368.783C669.542 368.79 669.589 368.794 669.615 368.794C669.851 368.794 670.051 368.762 670.216 368.698C670.38 368.639 670.519 368.536 670.631 368.39C670.747 368.248 670.846 368.051 670.928 367.801L671.36 366.622ZM670.12 361.178L671.697 365.893L671.966 366.987L671.22 367.368L668.987 361.178H670.12Z" fill="#11150E"/>
<path d="M762.62 365.185C762.62 364.995 762.59 364.826 762.53 364.68C762.474 364.531 762.373 364.396 762.227 364.276C762.085 364.157 761.886 364.042 761.632 363.934C761.381 363.825 761.063 363.715 760.678 363.603C760.274 363.483 759.909 363.35 759.584 363.204C759.258 363.055 758.979 362.884 758.748 362.694C758.516 362.503 758.338 362.284 758.214 362.037C758.091 361.79 758.029 361.508 758.029 361.19C758.029 360.872 758.095 360.578 758.226 360.309C758.357 360.039 758.544 359.805 758.787 359.607C759.034 359.405 759.327 359.248 759.668 359.136C760.008 359.023 760.388 358.967 760.807 358.967C761.421 358.967 761.941 359.085 762.367 359.321C762.798 359.553 763.125 359.858 763.349 360.236C763.574 360.61 763.686 361.01 763.686 361.437H762.609C762.609 361.13 762.543 360.859 762.412 360.623C762.281 360.383 762.083 360.196 761.817 360.062C761.552 359.923 761.215 359.854 760.807 359.854C760.422 359.854 760.104 359.912 759.853 360.028C759.602 360.144 759.415 360.301 759.292 360.499C759.172 360.698 759.112 360.924 759.112 361.178C759.112 361.351 759.148 361.508 759.219 361.65C759.294 361.788 759.408 361.917 759.561 362.037C759.718 362.157 759.917 362.267 760.156 362.368C760.399 362.469 760.689 362.566 761.026 362.66C761.49 362.791 761.89 362.937 762.227 363.098C762.564 363.259 762.841 363.44 763.058 363.642C763.278 363.84 763.441 364.067 763.546 364.321C763.654 364.572 763.709 364.856 763.709 365.174C763.709 365.507 763.641 365.808 763.506 366.078C763.372 366.347 763.179 366.577 762.928 366.768C762.678 366.959 762.377 367.107 762.025 367.211C761.677 367.312 761.288 367.363 760.858 367.363C760.48 367.363 760.107 367.31 759.741 367.206C759.378 367.101 759.047 366.944 758.748 366.734C758.452 366.525 758.214 366.267 758.035 365.96C757.859 365.649 757.771 365.29 757.771 364.882H758.849C758.849 365.163 758.903 365.404 759.011 365.606C759.12 365.805 759.268 365.969 759.455 366.1C759.645 366.231 759.861 366.328 760.1 366.392C760.343 366.452 760.596 366.482 760.858 366.482C761.236 366.482 761.555 366.429 761.817 366.325C762.079 366.22 762.277 366.07 762.412 365.876C762.551 365.681 762.62 365.451 762.62 365.185ZM768.647 365.848V361.178H769.691V367.251H768.698L768.647 365.848ZM768.843 364.568L769.276 364.557C769.276 364.961 769.233 365.335 769.147 365.679C769.064 366.02 768.93 366.315 768.742 366.566C768.555 366.817 768.31 367.013 768.007 367.155C767.704 367.294 767.336 367.363 766.902 367.363C766.606 367.363 766.335 367.32 766.088 367.234C765.845 367.148 765.635 367.015 765.459 366.835C765.284 366.656 765.147 366.422 765.05 366.134C764.956 365.846 764.909 365.5 764.909 365.096V361.178H765.948V365.107C765.948 365.38 765.978 365.606 766.037 365.786C766.101 365.962 766.185 366.102 766.29 366.207C766.399 366.308 766.518 366.379 766.649 366.42C766.784 366.461 766.922 366.482 767.064 366.482C767.506 366.482 767.856 366.398 768.114 366.229C768.372 366.057 768.557 365.827 768.669 365.539C768.785 365.247 768.843 364.924 768.843 364.568ZM772.312 362.475V367.251H771.273V361.178H772.256L772.312 362.475ZM772.065 363.984L771.633 363.968C771.636 363.552 771.698 363.169 771.818 362.817C771.938 362.462 772.106 362.153 772.323 361.891C772.54 361.629 772.798 361.427 773.097 361.285C773.4 361.139 773.735 361.066 774.102 361.066C774.401 361.066 774.671 361.107 774.91 361.19C775.149 361.268 775.353 361.395 775.522 361.571C775.694 361.747 775.825 361.975 775.915 362.256C776.004 362.533 776.049 362.871 776.049 363.272V367.251H775.005V363.26C775.005 362.942 774.959 362.688 774.865 362.497C774.772 362.303 774.635 362.162 774.455 362.076C774.276 361.987 774.055 361.942 773.793 361.942C773.535 361.942 773.299 361.996 773.086 362.104C772.877 362.213 772.695 362.363 772.542 362.553C772.392 362.744 772.274 362.963 772.188 363.21C772.106 363.453 772.065 363.711 772.065 363.984ZM781.454 366.072V358.631H782.497V367.251H781.543L781.454 366.072ZM777.368 364.282V364.164C777.368 363.7 777.424 363.279 777.536 362.901C777.652 362.52 777.815 362.192 778.025 361.919C778.238 361.646 778.49 361.437 778.782 361.291C779.078 361.141 779.407 361.066 779.77 361.066C780.152 361.066 780.485 361.134 780.769 361.268C781.057 361.399 781.3 361.592 781.498 361.846C781.7 362.097 781.859 362.4 781.975 362.755C782.091 363.111 782.172 363.513 782.217 363.962V364.478C782.176 364.924 782.095 365.324 781.975 365.679C781.859 366.035 781.7 366.338 781.498 366.588C781.3 366.839 781.057 367.032 780.769 367.166C780.481 367.297 780.144 367.363 779.759 367.363C779.403 367.363 779.078 367.286 778.782 367.133C778.49 366.979 778.238 366.764 778.025 366.487C777.815 366.211 777.652 365.885 777.536 365.511C777.424 365.133 777.368 364.723 777.368 364.282ZM778.412 364.164V364.282C778.412 364.585 778.442 364.869 778.502 365.135C778.565 365.401 778.663 365.634 778.793 365.836C778.924 366.038 779.091 366.197 779.293 366.313C779.495 366.426 779.736 366.482 780.017 366.482C780.361 366.482 780.644 366.409 780.864 366.263C781.089 366.117 781.268 365.924 781.403 365.685C781.538 365.445 781.643 365.185 781.717 364.905V363.552C781.672 363.347 781.607 363.148 781.521 362.957C781.439 362.763 781.33 362.591 781.195 362.441C781.064 362.288 780.902 362.166 780.707 362.076C780.516 361.987 780.29 361.942 780.028 361.942C779.744 361.942 779.499 362.002 779.293 362.121C779.091 362.237 778.924 362.398 778.793 362.604C778.663 362.806 778.565 363.042 778.502 363.311C778.442 363.577 778.412 363.861 778.412 364.164ZM787.694 366.212V363.087C787.694 362.847 787.645 362.639 787.548 362.464C787.455 362.284 787.312 362.146 787.122 362.048C786.931 361.951 786.695 361.902 786.415 361.902C786.153 361.902 785.923 361.947 785.724 362.037C785.53 362.127 785.376 362.245 785.264 362.391C785.156 362.537 785.101 362.694 785.101 362.862H784.063C784.063 362.645 784.119 362.43 784.231 362.217C784.344 362.003 784.505 361.811 784.714 361.639C784.927 361.463 785.182 361.324 785.477 361.223C785.777 361.119 786.11 361.066 786.476 361.066C786.918 361.066 787.307 361.141 787.644 361.291C787.984 361.44 788.25 361.667 788.44 361.97C788.635 362.269 788.732 362.645 788.732 363.098V365.926C788.732 366.128 788.749 366.343 788.783 366.572C788.82 366.8 788.874 366.996 788.946 367.161V367.251H787.862C787.81 367.131 787.769 366.972 787.739 366.774C787.709 366.572 787.694 366.384 787.694 366.212ZM787.874 363.569L787.885 364.299H786.835C786.54 364.299 786.276 364.323 786.044 364.372C785.812 364.417 785.618 364.486 785.461 364.579C785.303 364.673 785.184 364.791 785.101 364.933C785.019 365.071 784.978 365.234 784.978 365.421C784.978 365.612 785.021 365.786 785.107 365.943C785.193 366.1 785.322 366.225 785.494 366.319C785.67 366.409 785.885 366.454 786.14 366.454C786.458 366.454 786.738 366.386 786.981 366.252C787.225 366.117 787.417 365.952 787.559 365.758C787.705 365.563 787.784 365.374 787.795 365.191L788.238 365.69C788.212 365.848 788.141 366.022 788.025 366.212C787.909 366.403 787.754 366.587 787.559 366.762C787.369 366.934 787.14 367.079 786.875 367.194C786.613 367.307 786.317 367.363 785.988 367.363C785.576 367.363 785.215 367.282 784.905 367.122C784.598 366.961 784.359 366.746 784.187 366.476C784.018 366.203 783.934 365.898 783.934 365.561C783.934 365.236 783.998 364.95 784.125 364.703C784.252 364.452 784.435 364.244 784.675 364.08C784.914 363.911 785.202 363.784 785.539 363.698C785.876 363.612 786.252 363.569 786.667 363.569H787.874ZM791.982 366.622L793.671 361.178H794.782L792.346 368.188C792.29 368.337 792.215 368.498 792.122 368.67C792.032 368.846 791.916 369.013 791.774 369.17C791.632 369.327 791.46 369.454 791.258 369.552C791.059 369.653 790.822 369.703 790.545 369.703C790.463 369.703 790.358 369.692 790.231 369.669C790.103 369.647 790.014 369.628 789.961 369.613L789.956 368.771C789.986 368.775 790.032 368.779 790.096 368.783C790.163 368.79 790.21 368.794 790.236 368.794C790.472 368.794 790.672 368.762 790.837 368.698C791.001 368.639 791.14 368.536 791.252 368.39C791.368 368.248 791.467 368.051 791.55 367.801L791.982 366.622ZM790.741 361.178L792.318 365.893L792.588 366.987L791.841 367.368L789.608 361.178H790.741Z" fill="#11150E"/>
<path opacity="0.2" fill-rule="evenodd" clip-rule="evenodd" d="M29.6911 329.809C29.6911 321.919 33.9736 314.652 40.875 310.83L154.202 248.064L278.713 179.104L379.947 123.036C393.229 115.68 409.913 119.406 418.803 131.715L512.156 260.973C521.045 273.282 537.729 277.009 551.011 269.652L652.246 213.584L732.222 169.29C752.217 158.215 776.757 172.676 776.757 195.534V321.504C776.757 338.073 763.325 351.504 746.757 351.504H51.3863C39.4043 351.504 29.6911 341.791 29.6911 329.809Z" fill="#E9BAFF"/>
<path d="M29.6911 317.024L154.202 248.064L278.713 179.104L379.947 123.036C393.229 115.68 409.913 119.406 418.803 131.715L512.156 260.973C521.045 273.282 537.729 277.009 551.011 269.652L652.246 213.584L776.757 144.624" stroke="#BE39FA" stroke-width="1.91555" stroke-linejoin="round"/>
<circle cx="29.6911" cy="317.024" r="3.35222" fill="white" stroke="#BE39FA" stroke-width="1.91555"/>
<circle cx="154.202" cy="248.064" r="3.35222" fill="white" stroke="#BE39FA" stroke-width="1.91555"/>
<circle cx="278.713" cy="179.104" r="3.35222" fill="white" stroke="#BE39FA" stroke-width="1.91555"/>
<circle cx="403.224" cy="121.394" r="3.35222" fill="white" stroke="#BE39FA" stroke-width="1.91555"/>
<circle cx="527.735" cy="272.394" r="3.35222" fill="white" stroke="#BE39FA" stroke-width="1.91555"/>
<circle cx="652.246" cy="213.584" r="3.35222" fill="white" stroke="#BE39FA" stroke-width="1.91555"/>
<circle cx="776.757" cy="144.624" r="3.35222" fill="white" stroke="#BE39FA" stroke-width="1.91555"/>
</svg>
