<svg width="339" height="30" viewBox="0 0 339 30" fill="none" xmlns="http://www.w3.org/2000/svg">
<circle cx="14.4911" cy="14.988" r="14.2776" fill="#212121"/>
<rect x="35.6219" y="0.710449" width="28.5552" height="28.5552" fill="#212121"/>
<path d="M322.26 14.4031H328.547C329.862 14.4031 330.849 14.1107 331.507 13.5259C332.165 12.9411 332.494 11.9908 332.494 10.675C332.494 9.40789 332.165 8.49413 331.507 7.93368C330.849 7.34888 329.862 7.05647 328.547 7.05647H322.26V14.4031ZM316.521 2.59729H330.593C331.763 2.59729 332.811 2.79223 333.737 3.1821C334.687 3.54761 335.491 4.05932 336.149 4.71723C336.831 5.37514 337.343 6.1427 337.684 7.01992C338.05 7.87277 338.232 8.79872 338.232 9.79777C338.232 11.3329 337.903 12.6609 337.246 13.7818C336.612 14.9027 335.564 15.7555 334.102 16.3403V16.4134C334.809 16.6084 335.394 16.913 335.857 17.3272C336.32 17.7171 336.697 18.1922 336.99 18.7527C337.282 19.2888 337.489 19.8857 337.611 20.5437C337.757 21.2016 337.855 21.8595 337.903 22.5174C337.928 22.9316 337.952 23.419 337.977 23.9794C338.001 24.5399 338.037 25.1125 338.086 25.6973C338.159 26.2821 338.257 26.8426 338.379 27.3786C338.525 27.8903 338.732 28.3289 339 28.6945H333.262C332.945 27.866 332.75 26.8791 332.677 25.7339C332.604 24.5886 332.494 23.4921 332.348 22.4443C332.153 21.0797 331.739 20.0807 331.105 19.4471C330.472 18.8136 329.436 18.4968 327.998 18.4968H322.26V28.6945H316.521V2.59729Z" fill="#212121"/>
<path d="M292.821 2.59729H312.339V7.42198H298.559V13.0142H311.206V17.4734H298.559V23.8698H312.631V28.6945H292.821V2.59729Z" fill="#212121"/>
<path d="M272.824 13.1604H278.635C279.659 13.1604 280.499 12.9168 281.157 12.4294C281.815 11.9421 282.144 11.1501 282.144 10.0536C282.144 9.44444 282.034 8.94492 281.815 8.55505C281.596 8.16517 281.303 7.86058 280.938 7.64128C280.572 7.42198 280.146 7.27577 279.659 7.20267C279.196 7.1052 278.708 7.05647 278.197 7.05647H272.824V13.1604ZM267.085 2.59729H279.366C280.609 2.59729 281.742 2.70694 282.765 2.92625C283.789 3.14555 284.666 3.51106 285.397 4.02277C286.128 4.51011 286.689 5.16802 287.078 5.9965C287.493 6.82498 287.7 7.8484 287.7 9.06676C287.7 10.3826 287.395 11.4791 286.786 12.3563C286.201 13.2335 285.324 13.9524 284.154 14.5128C285.763 14.9758 286.957 15.7921 287.736 16.9617C288.54 18.1069 288.942 19.4959 288.942 21.1285C288.942 22.4443 288.687 23.5895 288.175 24.5642C287.663 25.5145 286.969 26.2943 286.092 26.9035C285.239 27.5126 284.252 27.9634 283.131 28.2558C282.034 28.5482 280.901 28.6945 279.732 28.6945H267.085V2.59729ZM272.824 24.2353H278.964C279.525 24.2353 280.061 24.1865 280.572 24.0891C281.084 23.9672 281.535 23.7845 281.925 23.5408C282.315 23.2728 282.619 22.9194 282.839 22.4808C283.082 22.0422 283.204 21.4818 283.204 20.7995C283.204 19.4593 282.826 18.509 282.071 17.9486C281.316 17.3638 280.317 17.0713 279.074 17.0713H272.824V24.2353Z" fill="#212121"/>
<path d="M233.925 2.59729H242.003L248.107 20.5437H248.18L253.955 2.59729H262.033V28.6945H256.66V10.1998H256.587L250.191 28.6945H245.768L239.372 10.3826H239.298V28.6945H233.925V2.59729Z" fill="#212121"/>
<path d="M210.225 2.59729H229.743V7.42198H215.963V13.0142H228.61V17.4734H215.963V23.8698H230.035V28.6945H210.225V2.59729Z" fill="#212121"/>
<path d="M177.065 2.59729H185.143L191.247 20.5437H191.32L197.095 2.59729H205.172V28.6945H199.799V10.1998H199.726L193.33 28.6945H188.907L182.511 10.3826H182.438V28.6945H177.065V2.59729Z" fill="#212121"/>
<path d="M146.253 14.4031H152.539C153.855 14.4031 154.842 14.1107 155.5 13.5259C156.158 12.9411 156.487 11.9908 156.487 10.675C156.487 9.40789 156.158 8.49413 155.5 7.93368C154.842 7.34888 153.855 7.05647 152.539 7.05647H146.253V14.4031ZM140.514 2.59729H154.586C155.756 2.59729 156.804 2.79223 157.73 3.1821C158.68 3.54761 159.484 4.05932 160.142 4.71723C160.824 5.37514 161.336 6.1427 161.677 7.01992C162.043 7.87277 162.225 8.79872 162.225 9.79777C162.225 11.3329 161.896 12.6609 161.239 13.7818C160.605 14.9027 159.557 15.7555 158.095 16.3403V16.4134C158.802 16.6084 159.387 16.913 159.85 17.3272C160.313 17.7171 160.69 18.1922 160.983 18.7527C161.275 19.2888 161.482 19.8857 161.604 20.5437C161.75 21.2016 161.848 21.8595 161.896 22.5174C161.921 22.9316 161.945 23.419 161.97 23.9794C161.994 24.5399 162.03 25.1125 162.079 25.6973C162.152 26.2821 162.25 26.8426 162.372 27.3786C162.518 27.8903 162.725 28.3289 162.993 28.6945H157.255C156.938 27.866 156.743 26.8791 156.67 25.7339C156.597 24.5886 156.487 23.4921 156.341 22.4443C156.146 21.0797 155.732 20.0807 155.098 19.4471C154.464 18.8136 153.429 18.4968 151.991 18.4968H146.253V28.6945H140.514V2.59729Z" fill="#212121"/>
<path d="M135.572 18.8258C135.572 22.359 134.585 24.9907 132.612 26.7207C130.638 28.4264 127.909 29.2793 124.424 29.2793C120.891 29.2793 118.15 28.4264 116.2 26.7207C114.275 25.015 113.313 22.3834 113.313 18.8258V2.59729H119.051V18.8258C119.051 19.5324 119.112 20.2269 119.234 20.9092C119.356 21.5914 119.612 22.2006 120.002 22.7367C120.392 23.2484 120.928 23.6748 121.61 24.016C122.317 24.3327 123.255 24.4911 124.424 24.4911C126.471 24.4911 127.884 24.0403 128.664 23.1388C129.444 22.2128 129.834 20.7751 129.834 18.8258V2.59729H135.572V18.8258Z" fill="#212121"/>
<path d="M89.5798 15.7555C89.5798 16.8521 89.7017 17.9242 89.9453 18.972C90.2134 19.9954 90.6276 20.9214 91.188 21.7499C91.7485 22.5783 92.4795 23.2484 93.3811 23.7601C94.2827 24.2475 95.3792 24.4911 96.6706 24.4911C97.9621 24.4911 99.0586 24.2475 99.9602 23.7601C100.862 23.2484 101.593 22.5783 102.153 21.7499C102.714 20.9214 103.116 19.9954 103.359 18.972C103.627 17.9242 103.761 16.8521 103.761 15.7555C103.761 14.6103 103.627 13.5016 103.359 12.4294C103.116 11.3573 102.714 10.407 102.153 9.57849C101.593 8.72564 100.862 8.05554 99.9602 7.5682C99.0586 7.05649 97.9621 6.80064 96.6706 6.80064C95.3792 6.80064 94.2827 7.05649 93.3811 7.5682C92.4795 8.05554 91.7485 8.72564 91.188 9.57849C90.6276 10.407 90.2134 11.3573 89.9453 12.4294C89.7017 13.5016 89.5798 14.6103 89.5798 15.7555ZM83.8414 15.7555C83.8414 13.8062 84.1338 12.003 84.7186 10.346C85.3034 8.66472 86.1441 7.20269 87.2406 5.95997C88.3371 4.71725 89.6773 3.74257 91.2612 3.03592C92.8694 2.32927 94.6725 1.97595 96.6706 1.97595C98.6931 1.97595 100.496 2.32927 102.08 3.03592C103.664 3.74257 105.004 4.71725 106.101 5.95997C107.197 7.20269 108.038 8.66472 108.623 10.346C109.208 12.003 109.5 13.8062 109.5 15.7555C109.5 17.6562 109.208 19.435 108.623 21.0919C108.038 22.7245 107.197 24.15 106.101 25.3684C105.004 26.5867 103.664 27.5492 102.08 28.2559C100.496 28.9381 98.6931 29.2793 96.6706 29.2793C94.6725 29.2793 92.8694 28.9381 91.2612 28.2559C89.6773 27.5492 88.3371 26.5867 87.2406 25.3684C86.1441 24.15 85.3034 22.7245 84.7186 21.0919C84.1338 19.435 83.8414 17.6562 83.8414 15.7555Z" fill="#212121"/>
</svg>
